<?xml version="1.0" encoding="UTF-8" standalone="no"?>
<!DOCTYPE svg PUBLIC "-//W3C//DTD SVG 1.1//EN"
 "http://www.w3.org/Graphics/SVG/1.1/DTD/svg11.dtd">
<!-- Generated by graphviz version 2.43.0 (0)
 -->
<!-- Title: G Pages: 1 -->
<svg width="2450pt" height="1716pt"
 viewBox="0.00 0.00 2450.00 1716.00" xmlns="http://www.w3.org/2000/svg" xmlns:xlink="http://www.w3.org/1999/xlink">
<g id="graph0" class="graph" transform="scale(1 1) rotate(0) translate(4 1712)">
<title>G</title>
<polygon fill="white" stroke="transparent" points="-4,4 -4,-1712 2446,-1712 2446,4 -4,4"/>
<g id="clust2" class="cluster">
<title>cluster_ecf3ce37</title>
<polygon fill="none" stroke="black" stroke-dasharray="1,5" points="1086,-1586 1086,-1700 1540,-1700 1540,-1586 1086,-1586"/>
<text text-anchor="middle" x="1313" y="-1684.8" font-family="Times,serif" font-size="14.00">File: classifier</text>
</g>
<g id="clust3" class="cluster">
<title>cluster_7d60f4a5</title>
<polygon fill="none" stroke="black" stroke-dasharray="1,5" points="1094,-1594 1094,-1669 1532,-1669 1532,-1594 1094,-1594"/>
<text text-anchor="middle" x="1313" y="-1653.8" font-family="Times,serif" font-size="14.00">Class: Classifier</text>
</g>
<g id="clust4" class="cluster">
<title>cluster_dc0a7a06</title>
<polygon fill="none" stroke="black" stroke-dasharray="1,5" points="1728,-62 1728,-230 2203,-230 2203,-62 1728,-62"/>
<text text-anchor="middle" x="1965.5" y="-214.8" font-family="Times,serif" font-size="14.00">File: max_entities_heap</text>
</g>
<g id="clust5" class="cluster">
<title>cluster_e278173b</title>
<polygon fill="none" stroke="black" stroke-dasharray="1,5" points="1736,-70 1736,-199 2195,-199 2195,-70 1736,-70"/>
<text text-anchor="middle" x="1965.5" y="-183.8" font-family="Times,serif" font-size="14.00">Class: MaxEntitiesHeap</text>
</g>
<g id="clust6" class="cluster">
<title>cluster_ad5c03dd</title>
<polygon fill="none" stroke="black" stroke-dasharray="1,5" points="427,-1310 427,-1586 1010,-1586 1010,-1310 427,-1310"/>
<text text-anchor="middle" x="718.5" y="-1570.8" font-family="Times,serif" font-size="14.00">File: models_builder</text>
</g>
<g id="clust7" class="cluster">
<title>cluster_cf025f73</title>
<polygon fill="none" stroke="black" stroke-dasharray="1,5" points="435,-1318 435,-1555 1002,-1555 1002,-1318 435,-1318"/>
<text text-anchor="middle" x="718.5" y="-1539.8" font-family="Times,serif" font-size="14.00">Class: ModelsBuilder</text>
</g>
<g id="clust8" class="cluster">
<title>cluster_a4754ef1</title>
<polygon fill="none" stroke="black" stroke-dasharray="1,5" points="1996,-1248 1996,-1323 2418,-1323 2418,-1248 1996,-1248"/>
<text text-anchor="middle" x="2207" y="-1307.8" font-family="Times,serif" font-size="14.00">File: peak_detection</text>
</g>
<g id="clust9" class="cluster">
<title>cluster_427623d9</title>
<polygon fill="none" stroke="black" stroke-dasharray="1,5" points="347,-292 347,-730 1643,-730 1643,-292 347,-292"/>
<text text-anchor="middle" x="995" y="-714.8" font-family="Times,serif" font-size="14.00">File: qe_multiple_entities</text>
</g>
<g id="clust10" class="cluster">
<title>cluster_ecdc1cc0</title>
<polygon fill="none" stroke="black" stroke-dasharray="1,5" points="355,-300 355,-699 1635,-699 1635,-300 355,-300"/>
<text text-anchor="middle" x="995" y="-683.8" font-family="Times,serif" font-size="14.00">Class: QEMultipleEntities</text>
</g>
<g id="clust11" class="cluster">
<title>cluster_0e9eff7a</title>
<polygon fill="none" stroke="black" stroke-dasharray="1,5" points="1066,-8 1066,-284 1650,-284 1650,-8 1066,-8"/>
<text text-anchor="middle" x="1358" y="-268.8" font-family="Times,serif" font-size="14.00">File: qe_single_entity</text>
</g>
<g id="clust12" class="cluster">
<title>cluster_7b4be500</title>
<polygon fill="none" stroke="black" stroke-dasharray="1,5" points="1074,-16 1074,-253 1642,-253 1642,-16 1074,-16"/>
<text text-anchor="middle" x="1358" y="-237.8" font-family="Times,serif" font-size="14.00">Class: QESingleEntity</text>
</g>
<g id="clust13" class="cluster">
<title>cluster_e401f3de</title>
<polygon fill="none" stroke="black" stroke-dasharray="1,5" points="90,-1134 90,-1302 948.5,-1302 948.5,-1134 90,-1134"/>
<text text-anchor="middle" x="519.25" y="-1286.8" font-family="Times,serif" font-size="14.00">File: temporal_search</text>
</g>
<g id="clust14" class="cluster">
<title>cluster_dfe6ac8b</title>
<polygon fill="none" stroke="black" stroke-dasharray="1,5" points="98,-1142 98,-1271 940.5,-1271 940.5,-1142 98,-1142"/>
<text text-anchor="middle" x="519.25" y="-1255.8" font-family="Times,serif" font-size="14.00">Class: TemporalSearch</text>
</g>
<g id="clust15" class="cluster">
<title>cluster_830d2d61</title>
<polygon fill="none" stroke="black" stroke-dasharray="1,5" points="1323.5,-738 1323.5,-1240 2188,-1240 2188,-738 1323.5,-738"/>
<text text-anchor="middle" x="1755.75" y="-1224.8" font-family="Times,serif" font-size="14.00">File: utils</text>
</g>
<g id="clust16" class="cluster">
<title>cluster_484c25ba</title>
<polygon fill="none" stroke="black" stroke-dasharray="1,5" points="1402,-1116 1402,-1209 1557,-1209 1557,-1116 1402,-1116"/>
<text text-anchor="middle" x="1479.5" y="-1193.8" font-family="Times,serif" font-size="14.00">Class: AutoNumber</text>
</g>
<g id="clust17" class="cluster">
<title>cluster_db378494</title>
<polygon fill="none" stroke="black" stroke-dasharray="1,5" points="1958.5,-1353 1958.5,-1521 2442,-1521 2442,-1353 1958.5,-1353"/>
<text text-anchor="middle" x="2200.25" y="-1505.8" font-family="Times,serif" font-size="14.00">File: word2vec_model</text>
</g>
<g id="clust18" class="cluster">
<title>cluster_a71021be</title>
<polygon fill="none" stroke="black" stroke-dasharray="1,5" points="2231,-1361 2231,-1490 2434,-1490 2434,-1361 2231,-1361"/>
<text text-anchor="middle" x="2332.5" y="-1474.8" font-family="Times,serif" font-size="14.00">Class: SentencesFromFile</text>
</g>
<g id="clust19" class="cluster">
<title>cluster_075a64d6</title>
<polygon fill="none" stroke="black" stroke-dasharray="1,5" points="1966.5,-1361 1966.5,-1490 2170.5,-1490 2170.5,-1361 1966.5,-1361"/>
<text text-anchor="middle" x="2068.5" y="-1474.8" font-family="Times,serif" font-size="14.00">Class: Word2VecModel</text>
</g>
<g id="clust20" class="cluster">
<title>cluster_339cac1c</title>
<polygon fill="none" stroke="black" stroke-dasharray="1,5" points="757.5,-930 757.5,-1098 1289,-1098 1289,-930 757.5,-930"/>
<text text-anchor="middle" x="1023.25" y="-1082.8" font-family="Times,serif" font-size="14.00">File: word2vec_model_alltime</text>
</g>
<g id="clust21" class="cluster">
<title>cluster_39b73f69</title>
<polygon fill="none" stroke="black" stroke-dasharray="1,5" points="1038,-938 1038,-1067 1281,-1067 1281,-938 1038,-938"/>
<text text-anchor="middle" x="1159.5" y="-1051.8" font-family="Times,serif" font-size="14.00">Class: SentencesFromDirectory</text>
</g>
<g id="clust22" class="cluster">
<title>cluster_aa6126b8</title>
<polygon fill="none" stroke="black" stroke-dasharray="1,5" points="765.5,-992 765.5,-1067 998.5,-1067 998.5,-992 765.5,-992"/>
<text text-anchor="middle" x="882" y="-1051.8" font-family="Times,serif" font-size="14.00">Class: Word2VecAllTimeModel</text>
</g>
<!-- Legend -->
<g id="node1" class="node">
<title>Legend</title>
<polygon fill="none" stroke="black" points="1.5,-1108 1.5,-1125 326.5,-1125 326.5,-1108 1.5,-1108"/>
<text text-anchor="start" x="98" y="-1112.8" font-family="Times,serif" font-size="14.00">Code2flow Legend</text>
<polygon fill="none" stroke="black" points="1.5,-1020 1.5,-1108 326.5,-1108 326.5,-1020 1.5,-1020"/>
<polygon fill="none" stroke="black" points="3.5,-1085 3.5,-1106 274.5,-1106 274.5,-1085 3.5,-1085"/>
<text text-anchor="start" x="79" y="-1091.8" font-family="Times,serif" font-size="14.00">Regular function</text>
<polygon fill="#cccccc" stroke="transparent" points="274.5,-1085 274.5,-1106 324.5,-1106 324.5,-1085 274.5,-1085"/>
<polygon fill="none" stroke="black" points="274.5,-1085 274.5,-1106 324.5,-1106 324.5,-1085 274.5,-1085"/>
<polygon fill="none" stroke="black" points="3.5,-1064 3.5,-1085 274.5,-1085 274.5,-1064 3.5,-1064"/>
<text text-anchor="start" x="17" y="-1070.8" font-family="Times,serif" font-size="14.00">Trunk function (nothing calls this)</text>
<polygon fill="#966f33" stroke="transparent" points="274.5,-1064 274.5,-1085 324.5,-1085 324.5,-1064 274.5,-1064"/>
<polygon fill="none" stroke="black" points="274.5,-1064 274.5,-1085 324.5,-1085 324.5,-1064 274.5,-1064"/>
<polygon fill="none" stroke="black" points="3.5,-1043 3.5,-1064 274.5,-1064 274.5,-1043 3.5,-1043"/>
<text text-anchor="start" x="6.5" y="-1049.8" font-family="Times,serif" font-size="14.00">Leaf function (this calls nothing else)</text>
<polygon fill="#6db33f" stroke="transparent" points="274.5,-1043 274.5,-1064 324.5,-1064 324.5,-1043 274.5,-1043"/>
<polygon fill="none" stroke="black" points="274.5,-1043 274.5,-1064 324.5,-1064 324.5,-1043 274.5,-1043"/>
<polygon fill="none" stroke="black" points="3.5,-1022 3.5,-1043 274.5,-1043 274.5,-1022 3.5,-1022"/>
<text text-anchor="start" x="92.5" y="-1028.8" font-family="Times,serif" font-size="14.00">Function call</text>
<polygon fill="none" stroke="black" points="274.5,-1022 274.5,-1043 324.5,-1043 324.5,-1022 274.5,-1022"/>
<text text-anchor="start" x="293" y="-1028.8" font-family="Times,serif" font-size="14.00">→</text>
<polygon fill="none" stroke="black" points="2.5,-1021 2.5,-1107 325.5,-1107 325.5,-1021 2.5,-1021"/>
<polygon fill="none" stroke="black" points="0,-1019.5 0,-1126.5 327,-1126.5 327,-1019.5 0,-1019.5"/>
</g>
<!-- node_6a59137a -->
<g id="node2" class="node">
<title>node_6a59137a</title>
<path fill="#966f33" stroke="black" d="M1205,-1638C1205,-1638 1114,-1638 1114,-1638 1108,-1638 1102,-1632 1102,-1626 1102,-1626 1102,-1614 1102,-1614 1102,-1608 1108,-1602 1114,-1602 1114,-1602 1205,-1602 1205,-1602 1211,-1602 1217,-1608 1217,-1614 1217,-1614 1217,-1626 1217,-1626 1217,-1632 1211,-1638 1205,-1638"/>
<text text-anchor="middle" x="1159.5" y="-1616.3" font-family="Times,serif" font-size="14.00">36: evaluate()</text>
</g>
<!-- node_2abb37d6 -->
<g id="node3" class="node">
<title>node_2abb37d6</title>
<path fill="#6db33f" stroke="black" d="M1512,-1638C1512,-1638 1447,-1638 1447,-1638 1441,-1638 1435,-1632 1435,-1626 1435,-1626 1435,-1614 1435,-1614 1435,-1608 1441,-1602 1447,-1602 1447,-1602 1512,-1602 1512,-1602 1518,-1602 1524,-1608 1524,-1614 1524,-1614 1524,-1626 1524,-1626 1524,-1632 1518,-1638 1512,-1638"/>
<text text-anchor="middle" x="1479.5" y="-1616.3" font-family="Times,serif" font-size="14.00">96: train()</text>
</g>
<!-- node_6a59137a&#45;&gt;node_2abb37d6 -->
<g id="edge1" class="edge">
<title>node_6a59137a&#45;&gt;node_2abb37d6</title>
<path fill="none" stroke="#56b4e9" stroke-width="2" d="M1217.08,-1626C1217.08,-1626 1424.76,-1626 1424.76,-1626"/>
<polygon fill="#56b4e9" stroke="#56b4e9" stroke-width="2" points="1424.76,-1629.5 1434.76,-1626 1424.76,-1622.5 1424.76,-1629.5"/>
</g>
<!-- node_ea412b50 -->
<g id="node47" class="node">
<title>node_ea412b50</title>
<path fill="#6db33f" stroke="black" d="M1552,-1106C1552,-1106 1407,-1106 1407,-1106 1401,-1106 1395,-1100 1395,-1094 1395,-1094 1395,-1082 1395,-1082 1395,-1076 1401,-1070 1407,-1070 1407,-1070 1552,-1070 1552,-1070 1558,-1070 1564,-1076 1564,-1082 1564,-1082 1564,-1094 1564,-1094 1564,-1100 1558,-1106 1552,-1106"/>
<text text-anchor="middle" x="1479.5" y="-1084.3" font-family="Times,serif" font-size="14.00">23: show_roc_graph()</text>
</g>
<!-- node_6a59137a&#45;&gt;node_ea412b50 -->
<g id="edge2" class="edge">
<title>node_6a59137a&#45;&gt;node_ea412b50</title>
<path fill="none" stroke="#56b4e9" stroke-width="2" d="M1217.13,-1614C1289.42,-1614 1404,-1614 1404,-1614 1404,-1614 1404,-1116.11 1404,-1116.11"/>
<polygon fill="#56b4e9" stroke="#56b4e9" stroke-width="2" points="1407.5,-1116.11 1404,-1106.11 1400.5,-1116.11 1407.5,-1116.11"/>
</g>
<!-- node_10be09bc -->
<g id="node4" class="node">
<title>node_10be09bc</title>
<path fill="#6db33f" stroke="black" d="M1828,-114C1828,-114 1756,-114 1756,-114 1750,-114 1744,-108 1744,-102 1744,-102 1744,-90 1744,-90 1744,-84 1750,-78 1756,-78 1756,-78 1828,-78 1828,-78 1834,-78 1840,-84 1840,-90 1840,-90 1840,-102 1840,-102 1840,-108 1834,-114 1828,-114"/>
<text text-anchor="middle" x="1792" y="-92.3" font-family="Times,serif" font-size="14.00">9: __init__()</text>
</g>
<!-- node_2049139c -->
<g id="node5" class="node">
<title>node_2049139c</title>
<path fill="#cccccc" stroke="black" d="M1820,-168C1820,-168 1764,-168 1764,-168 1758,-168 1752,-162 1752,-156 1752,-156 1752,-144 1752,-144 1752,-138 1758,-132 1764,-132 1764,-132 1820,-132 1820,-132 1826,-132 1832,-138 1832,-144 1832,-144 1832,-156 1832,-156 1832,-162 1826,-168 1820,-168"/>
<text text-anchor="middle" x="1792" y="-146.3" font-family="Times,serif" font-size="14.00">14: add()</text>
</g>
<!-- node_b63f5e62 -->
<g id="node6" class="node">
<title>node_b63f5e62</title>
<path fill="#6db33f" stroke="black" d="M2110,-168C2110,-168 2027,-168 2027,-168 2021,-168 2015,-162 2015,-156 2015,-156 2015,-144 2015,-144 2015,-138 2021,-132 2027,-132 2027,-132 2110,-132 2110,-132 2116,-132 2122,-138 2122,-144 2122,-144 2122,-156 2122,-156 2122,-162 2116,-168 2110,-168"/>
<text text-anchor="middle" x="2068.5" y="-146.3" font-family="Times,serif" font-size="14.00">33: heapify()</text>
</g>
<!-- node_2049139c&#45;&gt;node_b63f5e62 -->
<g id="edge3" class="edge">
<title>node_2049139c&#45;&gt;node_b63f5e62</title>
<path fill="none" stroke="#f0e442" stroke-width="2" d="M1832.21,-156C1832.21,-156 2004.96,-156 2004.96,-156"/>
<polygon fill="#f0e442" stroke="#f0e442" stroke-width="2" points="2004.96,-159.5 2014.96,-156 2004.95,-152.5 2004.96,-159.5"/>
</g>
<!-- node_c7b0c07b -->
<g id="node7" class="node">
<title>node_c7b0c07b</title>
<path fill="#6db33f" stroke="black" d="M2175,-114C2175,-114 1962,-114 1962,-114 1956,-114 1950,-108 1950,-102 1950,-102 1950,-90 1950,-90 1950,-84 1956,-78 1962,-78 1962,-78 2175,-78 2175,-78 2181,-78 2187,-84 2187,-90 2187,-90 2187,-102 2187,-102 2187,-108 2181,-114 2175,-114"/>
<text text-anchor="middle" x="2068.5" y="-92.3" font-family="Times,serif" font-size="14.00">36: is_term_exists_in_entities()</text>
</g>
<!-- node_2049139c&#45;&gt;node_c7b0c07b -->
<g id="edge4" class="edge">
<title>node_2049139c&#45;&gt;node_c7b0c07b</title>
<path fill="none" stroke="#f0e442" stroke-width="2" d="M1832.29,-144C1880.56,-144 1955,-144 1955,-144 1955,-144 1955,-124.15 1955,-124.15"/>
<polygon fill="#f0e442" stroke="#f0e442" stroke-width="2" points="1958.5,-124.15 1955,-114.15 1951.5,-124.15 1958.5,-124.15"/>
</g>
<!-- node_2da2c5d0 -->
<g id="node8" class="node">
<title>node_2da2c5d0</title>
<path fill="#6db33f" stroke="black" d="M583,-1524C583,-1524 502,-1524 502,-1524 496,-1524 490,-1518 490,-1512 490,-1512 490,-1500 490,-1500 490,-1494 496,-1488 502,-1488 502,-1488 583,-1488 583,-1488 589,-1488 595,-1494 595,-1500 595,-1500 595,-1512 595,-1512 595,-1518 589,-1524 583,-1524"/>
<text text-anchor="middle" x="542.5" y="-1502.3" font-family="Times,serif" font-size="14.00">13: __init__()</text>
</g>
<!-- node_0f26998f -->
<g id="node9" class="node">
<title>node_0f26998f</title>
<path fill="#966f33" stroke="black" d="M616.5,-1416C616.5,-1416 468.5,-1416 468.5,-1416 462.5,-1416 456.5,-1410 456.5,-1404 456.5,-1404 456.5,-1392 456.5,-1392 456.5,-1386 462.5,-1380 468.5,-1380 468.5,-1380 616.5,-1380 616.5,-1380 622.5,-1380 628.5,-1386 628.5,-1392 628.5,-1392 628.5,-1404 628.5,-1404 628.5,-1410 622.5,-1416 616.5,-1416"/>
<text text-anchor="middle" x="542.5" y="-1394.3" font-family="Times,serif" font-size="14.00">55: build_all_models()</text>
</g>
<!-- node_5e2d5796 -->
<g id="node11" class="node">
<title>node_5e2d5796</title>
<path fill="#cccccc" stroke="black" d="M982,-1416C982,-1416 782,-1416 782,-1416 776,-1416 770,-1410 770,-1404 770,-1404 770,-1392 770,-1392 770,-1386 776,-1380 782,-1380 782,-1380 982,-1380 982,-1380 988,-1380 994,-1386 994,-1392 994,-1392 994,-1404 994,-1404 994,-1410 988,-1416 982,-1416"/>
<text text-anchor="middle" x="882" y="-1394.3" font-family="Times,serif" font-size="14.00">40: build_models_from_files()</text>
</g>
<!-- node_0f26998f&#45;&gt;node_5e2d5796 -->
<g id="edge5" class="edge">
<title>node_0f26998f&#45;&gt;node_5e2d5796</title>
<path fill="none" stroke="#cc79a7" stroke-width="2" d="M628.61,-1398C628.61,-1398 759.98,-1398 759.98,-1398"/>
<polygon fill="#cc79a7" stroke="#cc79a7" stroke-width="2" points="759.98,-1401.5 769.98,-1398 759.98,-1394.5 759.98,-1401.5"/>
</g>
<!-- node_fbba87a5 -->
<g id="node10" class="node">
<title>node_fbba87a5</title>
<path fill="#966f33" stroke="black" d="M630,-1470C630,-1470 455,-1470 455,-1470 449,-1470 443,-1464 443,-1458 443,-1458 443,-1446 443,-1446 443,-1440 449,-1434 455,-1434 455,-1434 630,-1434 630,-1434 636,-1434 642,-1440 642,-1446 642,-1446 642,-1458 642,-1458 642,-1464 636,-1470 630,-1470"/>
<text text-anchor="middle" x="542.5" y="-1448.3" font-family="Times,serif" font-size="14.00">34: build_model_of_year()</text>
</g>
<!-- node_43615580 -->
<g id="node51" class="node">
<title>node_43615580</title>
<path fill="#cccccc" stroke="black" d="M2109,-1459C2109,-1459 2028,-1459 2028,-1459 2022,-1459 2016,-1453 2016,-1447 2016,-1447 2016,-1435 2016,-1435 2016,-1429 2022,-1423 2028,-1423 2028,-1423 2109,-1423 2109,-1423 2115,-1423 2121,-1429 2121,-1435 2121,-1435 2121,-1447 2121,-1447 2121,-1453 2115,-1459 2109,-1459"/>
<text text-anchor="middle" x="2068.5" y="-1437.3" font-family="Times,serif" font-size="14.00">21: __init__()</text>
</g>
<!-- node_fbba87a5&#45;&gt;node_43615580 -->
<g id="edge8" class="edge">
<title>node_fbba87a5&#45;&gt;node_43615580</title>
<path fill="none" stroke="#0072b2" stroke-width="2" d="M642.04,-1446.5C642.04,-1446.5 2006,-1446.5 2006,-1446.5"/>
<polygon fill="#0072b2" stroke="#0072b2" stroke-width="2" points="2006,-1450 2016,-1446.5 2006,-1443 2006,-1450"/>
</g>
<!-- node_5e2d5796&#45;&gt;node_43615580 -->
<g id="edge9" class="edge">
<title>node_5e2d5796&#45;&gt;node_43615580</title>
<path fill="none" stroke="#d55e00" stroke-width="2" d="M994.2,-1410.5C1290.1,-1410.5 2069,-1410.5 2069,-1410.5 2069,-1410.5 2069,-1412.91 2069,-1412.91"/>
<polygon fill="#d55e00" stroke="#d55e00" stroke-width="2" points="2065.5,-1412.91 2069,-1422.91 2072.5,-1412.91 2065.5,-1412.91"/>
</g>
<!-- node_0fcdf4a2 -->
<g id="node12" class="node">
<title>node_0fcdf4a2</title>
<path fill="#cccccc" stroke="black" d="M601.5,-1362C601.5,-1362 483.5,-1362 483.5,-1362 477.5,-1362 471.5,-1356 471.5,-1350 471.5,-1350 471.5,-1338 471.5,-1338 471.5,-1332 477.5,-1326 483.5,-1326 483.5,-1326 601.5,-1326 601.5,-1326 607.5,-1326 613.5,-1332 613.5,-1338 613.5,-1338 613.5,-1350 613.5,-1350 613.5,-1356 607.5,-1362 601.5,-1362"/>
<text text-anchor="middle" x="542.5" y="-1340.3" font-family="Times,serif" font-size="14.00">70: load_models()</text>
</g>
<!-- node_0fcdf4a2&#45;&gt;node_5e2d5796 -->
<g id="edge10" class="edge">
<title>node_0fcdf4a2&#45;&gt;node_5e2d5796</title>
<path fill="none" stroke="#56b4e9" stroke-width="2" d="M613.62,-1350C685.17,-1350 785,-1350 785,-1350 785,-1350 785,-1369.85 785,-1369.85"/>
<polygon fill="#56b4e9" stroke="#56b4e9" stroke-width="2" points="781.5,-1369.85 785,-1379.85 788.5,-1369.85 781.5,-1369.85"/>
</g>
<!-- node_2f96f679 -->
<g id="node13" class="node">
<title>node_2f96f679</title>
<path fill="#cccccc" stroke="black" d="M2121,-1292C2121,-1292 2016,-1292 2016,-1292 2010,-1292 2004,-1286 2004,-1280 2004,-1280 2004,-1268 2004,-1268 2004,-1262 2010,-1256 2016,-1256 2016,-1256 2121,-1256 2121,-1256 2127,-1256 2133,-1262 2133,-1268 2133,-1268 2133,-1280 2133,-1280 2133,-1286 2127,-1292 2121,-1292"/>
<text text-anchor="middle" x="2068.5" y="-1270.3" font-family="Times,serif" font-size="14.00">26: find_peaks()</text>
</g>
<!-- node_f1f7d12d -->
<g id="node14" class="node">
<title>node_f1f7d12d</title>
<path fill="#6db33f" stroke="black" d="M2398,-1292C2398,-1292 2267,-1292 2267,-1292 2261,-1292 2255,-1286 2255,-1280 2255,-1280 2255,-1268 2255,-1268 2255,-1262 2261,-1256 2267,-1256 2267,-1256 2398,-1256 2398,-1256 2404,-1256 2410,-1262 2410,-1268 2410,-1268 2410,-1280 2410,-1280 2410,-1286 2404,-1292 2398,-1292"/>
<text text-anchor="middle" x="2332.5" y="-1270.3" font-family="Times,serif" font-size="14.00">9: pad_with_zeros()</text>
</g>
<!-- node_2f96f679&#45;&gt;node_f1f7d12d -->
<g id="edge11" class="edge">
<title>node_2f96f679&#45;&gt;node_f1f7d12d</title>
<path fill="none" stroke="#e69f00" stroke-width="2" d="M2133.08,-1274C2133.08,-1274 2244.96,-1274 2244.96,-1274"/>
<polygon fill="#e69f00" stroke="#e69f00" stroke-width="2" points="2244.96,-1277.5 2254.96,-1274 2244.96,-1270.5 2244.96,-1277.5"/>
</g>
<!-- node_8dbf4ad8 -->
<g id="node15" class="node">
<title>node_8dbf4ad8</title>
<path fill="#6db33f" stroke="black" d="M583,-614C583,-614 502,-614 502,-614 496,-614 490,-608 490,-602 490,-602 490,-590 490,-590 490,-584 496,-578 502,-578 502,-578 583,-578 583,-578 589,-578 595,-584 595,-590 595,-590 595,-602 595,-602 595,-608 589,-614 583,-614"/>
<text text-anchor="middle" x="542.5" y="-592.3" font-family="Times,serif" font-size="14.00">20: __init__()</text>
</g>
<!-- node_005e89ab -->
<g id="node16" class="node">
<title>node_005e89ab</title>
<path fill="#966f33" stroke="black" d="M700.5,-452C700.5,-452 384.5,-452 384.5,-452 378.5,-452 372.5,-446 372.5,-440 372.5,-440 372.5,-428 372.5,-428 372.5,-422 378.5,-416 384.5,-416 384.5,-416 700.5,-416 700.5,-416 706.5,-416 712.5,-422 712.5,-428 712.5,-428 712.5,-440 712.5,-440 712.5,-446 706.5,-452 700.5,-452"/>
<text text-anchor="middle" x="542.5" y="-430.3" font-family="Times,serif" font-size="14.00">84: calc_best_year_globally_based_classifier()</text>
</g>
<!-- node_a082863c -->
<g id="node39" class="node">
<title>node_a082863c</title>
<path fill="#cccccc" stroke="black" d="M1889,-782C1889,-782 1695,-782 1695,-782 1689,-782 1683,-776 1683,-770 1683,-770 1683,-758 1683,-758 1683,-752 1689,-746 1695,-746 1695,-746 1889,-746 1889,-746 1895,-746 1901,-752 1901,-758 1901,-758 1901,-770 1901,-770 1901,-776 1895,-782 1889,-782"/>
<text text-anchor="middle" x="1792" y="-760.3" font-family="Times,serif" font-size="14.00">132: create_feature_vector()</text>
</g>
<!-- node_005e89ab&#45;&gt;node_a082863c -->
<g id="edge12" class="edge">
<title>node_005e89ab&#45;&gt;node_a082863c</title>
<path fill="none" stroke="#009e73" stroke-width="2" d="M712.72,-448C1033.14,-448 1694,-448 1694,-448 1694,-448 1694,-735.64 1694,-735.64"/>
<polygon fill="#009e73" stroke="#009e73" stroke-width="2" points="1690.5,-735.64 1694,-745.64 1697.5,-735.64 1690.5,-735.64"/>
</g>
<!-- node_46333b05 -->
<g id="node17" class="node">
<title>node_46333b05</title>
<path fill="#6db33f" stroke="black" d="M1256.5,-498C1256.5,-498 1062.5,-498 1062.5,-498 1056.5,-498 1050.5,-492 1050.5,-486 1050.5,-486 1050.5,-474 1050.5,-474 1050.5,-468 1056.5,-462 1062.5,-462 1062.5,-462 1256.5,-462 1256.5,-462 1262.5,-462 1268.5,-468 1268.5,-474 1268.5,-474 1268.5,-486 1268.5,-486 1268.5,-492 1262.5,-498 1256.5,-498"/>
<text text-anchor="middle" x="1159.5" y="-476.3" font-family="Times,serif" font-size="14.00">57: calc_best_year_method()</text>
</g>
<!-- node_26db717f -->
<g id="node18" class="node">
<title>node_26db717f</title>
<path fill="#966f33" stroke="black" d="M671,-560C671,-560 414,-560 414,-560 408,-560 402,-554 402,-548 402,-548 402,-536 402,-536 402,-530 408,-524 414,-524 414,-524 671,-524 671,-524 677,-524 683,-530 683,-536 683,-536 683,-548 683,-548 683,-554 677,-560 671,-560"/>
<text text-anchor="middle" x="542.5" y="-538.3" font-family="Times,serif" font-size="14.00">139: calc_best_year_peak_detection()</text>
</g>
<!-- node_ed8217fe -->
<g id="node40" class="node">
<title>node_ed8217fe</title>
<path fill="#6db33f" stroke="black" d="M1579,-944C1579,-944 1380,-944 1380,-944 1374,-944 1368,-938 1368,-932 1368,-932 1368,-920 1368,-920 1368,-914 1374,-908 1380,-908 1380,-908 1579,-908 1579,-908 1585,-908 1591,-914 1591,-920 1591,-920 1591,-932 1591,-932 1591,-938 1585,-944 1579,-944"/>
<text text-anchor="middle" x="1479.5" y="-922.3" font-family="Times,serif" font-size="14.00">236: find_longest_sequence()</text>
</g>
<!-- node_26db717f&#45;&gt;node_ed8217fe -->
<g id="edge13" class="edge">
<title>node_26db717f&#45;&gt;node_ed8217fe</title>
<path fill="none" stroke="#cc79a7" stroke-width="2" d="M663,-560.03C663,-636.73 663,-932 663,-932 663,-932 1357.68,-932 1357.68,-932"/>
<polygon fill="#cc79a7" stroke="#cc79a7" stroke-width="2" points="1357.68,-935.5 1367.68,-932 1357.68,-928.5 1357.68,-935.5"/>
</g>
<!-- node_780a0dab -->
<g id="node41" class="node">
<title>node_780a0dab</title>
<path fill="#cccccc" stroke="black" d="M1536.5,-836C1536.5,-836 1422.5,-836 1422.5,-836 1416.5,-836 1410.5,-830 1410.5,-824 1410.5,-824 1410.5,-812 1410.5,-812 1410.5,-806 1416.5,-800 1422.5,-800 1422.5,-800 1536.5,-800 1536.5,-800 1542.5,-800 1548.5,-806 1548.5,-812 1548.5,-812 1548.5,-824 1548.5,-824 1548.5,-830 1542.5,-836 1536.5,-836"/>
<text text-anchor="middle" x="1479.5" y="-814.3" font-family="Times,serif" font-size="14.00">221: find_peaks()</text>
</g>
<!-- node_26db717f&#45;&gt;node_780a0dab -->
<g id="edge14" class="edge">
<title>node_26db717f&#45;&gt;node_780a0dab</title>
<path fill="none" stroke="#cc79a7" stroke-width="2" d="M673,-560.07C673,-622.31 673,-824 673,-824 673,-824 1400.39,-824 1400.39,-824"/>
<polygon fill="#cc79a7" stroke="#cc79a7" stroke-width="2" points="1400.39,-827.5 1410.39,-824 1400.39,-820.5 1400.39,-827.5"/>
</g>
<!-- node_3b0d9913 -->
<g id="node42" class="node">
<title>node_3b0d9913</title>
<path fill="#6db33f" stroke="black" d="M1557.5,-1052C1557.5,-1052 1401.5,-1052 1401.5,-1052 1395.5,-1052 1389.5,-1046 1389.5,-1040 1389.5,-1040 1389.5,-1028 1389.5,-1028 1389.5,-1022 1395.5,-1016 1401.5,-1016 1401.5,-1016 1557.5,-1016 1557.5,-1016 1563.5,-1016 1569.5,-1022 1569.5,-1028 1569.5,-1028 1569.5,-1040 1569.5,-1040 1569.5,-1046 1563.5,-1052 1557.5,-1052"/>
<text text-anchor="middle" x="1479.5" y="-1030.3" font-family="Times,serif" font-size="14.00">278: get_middle_year()</text>
</g>
<!-- node_26db717f&#45;&gt;node_3b0d9913 -->
<g id="edge15" class="edge">
<title>node_26db717f&#45;&gt;node_3b0d9913</title>
<path fill="none" stroke="#cc79a7" stroke-width="2" d="M653,-560.11C653,-649.82 653,-1042.4 653,-1042.4 653,-1042.4 1379.48,-1042.4 1379.48,-1042.4"/>
<polygon fill="#cc79a7" stroke="#cc79a7" stroke-width="2" points="1379.48,-1045.9 1389.48,-1042.4 1379.48,-1038.9 1379.48,-1045.9"/>
</g>
<!-- node_c1967423 -->
<g id="node19" class="node">
<title>node_c1967423</title>
<path fill="#966f33" stroke="black" d="M684.5,-398C684.5,-398 400.5,-398 400.5,-398 394.5,-398 388.5,-392 388.5,-386 388.5,-386 388.5,-374 388.5,-374 388.5,-368 394.5,-362 400.5,-362 400.5,-362 684.5,-362 684.5,-362 690.5,-362 696.5,-368 696.5,-374 696.5,-374 696.5,-386 696.5,-386 696.5,-392 690.5,-398 684.5,-398"/>
<text text-anchor="middle" x="542.5" y="-376.3" font-family="Times,serif" font-size="14.00">111: calc_best_year_temporal_classifier()</text>
</g>
<!-- node_c1967423&#45;&gt;node_a082863c -->
<g id="edge16" class="edge">
<title>node_c1967423&#45;&gt;node_a082863c</title>
<path fill="none" stroke="#009e73" stroke-width="2" d="M696.74,-380C1012.69,-380 1704,-380 1704,-380 1704,-380 1704,-735.99 1704,-735.99"/>
<polygon fill="#009e73" stroke="#009e73" stroke-width="2" points="1700.5,-735.99 1704,-745.99 1707.5,-735.99 1700.5,-735.99"/>
</g>
<!-- node_5f77e5be -->
<g id="node20" class="node">
<title>node_5f77e5be</title>
<path fill="#966f33" stroke="black" d="M710,-344C710,-344 375,-344 375,-344 369,-344 363,-338 363,-332 363,-332 363,-320 363,-320 363,-314 369,-308 375,-308 375,-308 710,-308 710,-308 716,-308 722,-314 722,-320 722,-320 722,-332 722,-332 722,-338 716,-344 710,-344"/>
<text text-anchor="middle" x="542.5" y="-322.3" font-family="Times,serif" font-size="14.00">125: calc_best_year_temporal_model_classifier()</text>
</g>
<!-- node_5f77e5be&#45;&gt;node_a082863c -->
<g id="edge17" class="edge">
<title>node_5f77e5be&#45;&gt;node_a082863c</title>
<path fill="none" stroke="#d55e00" stroke-width="2" d="M722.02,-326C1050.3,-326 1714,-326 1714,-326 1714,-326 1714,-735.74 1714,-735.74"/>
<polygon fill="#d55e00" stroke="#d55e00" stroke-width="2" points="1710.5,-735.74 1714,-745.74 1717.5,-735.74 1710.5,-735.74"/>
</g>
<!-- node_e308c7bf -->
<g id="node21" class="node">
<title>node_e308c7bf</title>
<path fill="#cccccc" stroke="black" d="M583.5,-668C583.5,-668 501.5,-668 501.5,-668 495.5,-668 489.5,-662 489.5,-656 489.5,-656 489.5,-644 489.5,-644 489.5,-638 495.5,-632 501.5,-632 501.5,-632 583.5,-632 583.5,-632 589.5,-632 595.5,-638 595.5,-644 595.5,-644 595.5,-656 595.5,-656 595.5,-662 589.5,-668 583.5,-668"/>
<text text-anchor="middle" x="542.5" y="-646.3" font-family="Times,serif" font-size="14.00">31: expand()</text>
</g>
<!-- node_4cde9ff8 -->
<g id="node23" class="node">
<title>node_4cde9ff8</title>
<path fill="#cccccc" stroke="black" d="M953.5,-525C953.5,-525 810.5,-525 810.5,-525 804.5,-525 798.5,-519 798.5,-513 798.5,-513 798.5,-501 798.5,-501 798.5,-495 804.5,-489 810.5,-489 810.5,-489 953.5,-489 953.5,-489 959.5,-489 965.5,-495 965.5,-501 965.5,-501 965.5,-513 965.5,-513 965.5,-519 959.5,-525 953.5,-525"/>
<text text-anchor="middle" x="882" y="-503.3" font-family="Times,serif" font-size="14.00">34: expand_entities()</text>
</g>
<!-- node_e308c7bf&#45;&gt;node_4cde9ff8 -->
<g id="edge18" class="edge">
<title>node_e308c7bf&#45;&gt;node_4cde9ff8</title>
<path fill="none" stroke="#cc79a7" stroke-width="2" d="M595.79,-650C673.56,-650 809,-650 809,-650 809,-650 809,-535.11 809,-535.11"/>
<polygon fill="#cc79a7" stroke="#cc79a7" stroke-width="2" points="812.5,-535.11 809,-525.11 805.5,-535.11 812.5,-535.11"/>
</g>
<!-- node_d5016fd7 -->
<g id="node22" class="node">
<title>node_d5016fd7</title>
<path fill="#cccccc" stroke="black" d="M1233.5,-444C1233.5,-444 1085.5,-444 1085.5,-444 1079.5,-444 1073.5,-438 1073.5,-432 1073.5,-432 1073.5,-420 1073.5,-420 1073.5,-414 1079.5,-408 1085.5,-408 1085.5,-408 1233.5,-408 1233.5,-408 1239.5,-408 1245.5,-414 1245.5,-420 1245.5,-420 1245.5,-432 1245.5,-432 1245.5,-438 1239.5,-444 1233.5,-444"/>
<text text-anchor="middle" x="1159.5" y="-422.3" font-family="Times,serif" font-size="14.00">73: expand_baseline()</text>
</g>
<!-- node_ec630c24 -->
<g id="node26" class="node">
<title>node_ec630c24</title>
<path fill="#cccccc" stroke="black" d="M1615,-444C1615,-444 1344,-444 1344,-444 1338,-444 1332,-438 1332,-432 1332,-432 1332,-420 1332,-420 1332,-414 1338,-408 1344,-408 1344,-408 1615,-408 1615,-408 1621,-408 1627,-414 1627,-420 1627,-420 1627,-432 1627,-432 1627,-438 1621,-444 1615,-444"/>
<text text-anchor="middle" x="1479.5" y="-422.3" font-family="Times,serif" font-size="14.00">190: filter_candidates_by_mutual_sim()</text>
</g>
<!-- node_d5016fd7&#45;&gt;node_ec630c24 -->
<g id="edge19" class="edge">
<title>node_d5016fd7&#45;&gt;node_ec630c24</title>
<path fill="none" stroke="#cc79a7" stroke-width="2" d="M1245.68,-426C1245.68,-426 1321.76,-426 1321.76,-426"/>
<polygon fill="#cc79a7" stroke="#cc79a7" stroke-width="2" points="1321.76,-429.5 1331.76,-426 1321.76,-422.5 1321.76,-429.5"/>
</g>
<!-- node_7e3d05b8 -->
<g id="node28" class="node">
<title>node_7e3d05b8</title>
<path fill="#cccccc" stroke="black" d="M1225,-222C1225,-222 1094,-222 1094,-222 1088,-222 1082,-216 1082,-210 1082,-210 1082,-198 1082,-198 1082,-192 1088,-186 1094,-186 1094,-186 1225,-186 1225,-186 1231,-186 1237,-192 1237,-198 1237,-198 1237,-210 1237,-210 1237,-216 1231,-222 1225,-222"/>
<text text-anchor="middle" x="1159.5" y="-200.3" font-family="Times,serif" font-size="14.00">26: expand_entity()</text>
</g>
<!-- node_d5016fd7&#45;&gt;node_7e3d05b8 -->
<g id="edge20" class="edge">
<title>node_d5016fd7&#45;&gt;node_7e3d05b8</title>
<path fill="none" stroke="#cc79a7" stroke-width="2" d="M1160,-407.83C1160,-407.83 1160,-232.11 1160,-232.11"/>
<polygon fill="#cc79a7" stroke="#cc79a7" stroke-width="2" points="1163.5,-232.11 1160,-222.11 1156.5,-232.11 1163.5,-232.11"/>
</g>
<!-- node_4cde9ff8&#45;&gt;node_46333b05 -->
<g id="edge21" class="edge">
<title>node_4cde9ff8&#45;&gt;node_46333b05</title>
<path fill="none" stroke="#000000" stroke-width="2" d="M965.64,-493.5C965.64,-493.5 1040.36,-493.5 1040.36,-493.5"/>
<polygon fill="#000000" stroke="#000000" stroke-width="2" points="1040.36,-497 1050.36,-493.5 1040.36,-490 1040.36,-497"/>
</g>
<!-- node_4cde9ff8&#45;&gt;node_d5016fd7 -->
<g id="edge22" class="edge">
<title>node_4cde9ff8&#45;&gt;node_d5016fd7</title>
<path fill="none" stroke="#000000" stroke-width="2" d="M882,-488.75C882,-465.98 882,-430 882,-430 882,-430 1063.22,-430 1063.22,-430"/>
<polygon fill="#000000" stroke="#000000" stroke-width="2" points="1063.22,-433.5 1073.22,-430 1063.22,-426.5 1063.22,-433.5"/>
</g>
<!-- node_4c072efe -->
<g id="node24" class="node">
<title>node_4c072efe</title>
<path fill="#cccccc" stroke="black" d="M1261,-552C1261,-552 1058,-552 1058,-552 1052,-552 1046,-546 1046,-540 1046,-540 1046,-528 1046,-528 1046,-522 1052,-516 1058,-516 1058,-516 1261,-516 1261,-516 1267,-516 1273,-522 1273,-528 1273,-528 1273,-540 1273,-540 1273,-546 1267,-552 1261,-552"/>
<text text-anchor="middle" x="1159.5" y="-530.3" font-family="Times,serif" font-size="14.00">98: expand_entities_generic()</text>
</g>
<!-- node_4cde9ff8&#45;&gt;node_4c072efe -->
<g id="edge23" class="edge">
<title>node_4cde9ff8&#45;&gt;node_4c072efe</title>
<path fill="none" stroke="#000000" stroke-width="2" d="M965.64,-519C965.64,-519 1035.79,-519 1035.79,-519"/>
<polygon fill="#000000" stroke="#000000" stroke-width="2" points="1035.79,-522.5 1045.79,-519 1035.79,-515.5 1035.79,-522.5"/>
</g>
<!-- node_4c072efe&#45;&gt;node_ec630c24 -->
<g id="edge27" class="edge">
<title>node_4c072efe&#45;&gt;node_ec630c24</title>
<path fill="none" stroke="#d55e00" stroke-width="2" d="M1273.4,-534C1365.52,-534 1480,-534 1480,-534 1480,-534 1480,-454.32 1480,-454.32"/>
<polygon fill="#d55e00" stroke="#d55e00" stroke-width="2" points="1483.5,-454.32 1480,-444.32 1476.5,-454.32 1483.5,-454.32"/>
</g>
<!-- node_4c072efe&#45;&gt;node_7e3d05b8 -->
<g id="edge28" class="edge">
<title>node_4c072efe&#45;&gt;node_7e3d05b8</title>
<path fill="none" stroke="#d55e00" stroke-width="2" d="M1045.91,-522C1030.58,-522 1020,-522 1020,-522 1020,-522 1020,-214.8 1020,-214.8 1020,-214.8 1072,-214.8 1072,-214.8"/>
<polygon fill="#d55e00" stroke="#d55e00" stroke-width="2" points="1072,-218.3 1082,-214.8 1072,-211.3 1072,-218.3"/>
</g>
<!-- node_37e2d69c -->
<g id="node25" class="node">
<title>node_37e2d69c</title>
<path fill="#966f33" stroke="black" d="M663,-506C663,-506 422,-506 422,-506 416,-506 410,-500 410,-494 410,-494 410,-482 410,-482 410,-476 416,-470 422,-470 422,-470 663,-470 663,-470 669,-470 675,-476 675,-482 675,-482 675,-494 675,-494 675,-500 669,-506 663,-506"/>
<text text-anchor="middle" x="542.5" y="-484.3" font-family="Times,serif" font-size="14.00">153: expand_peak_detection_new()</text>
</g>
<!-- node_37e2d69c&#45;&gt;node_10be09bc -->
<g id="edge29" class="edge">
<title>node_37e2d69c&#45;&gt;node_10be09bc</title>
<path fill="none" stroke="#f0e442" stroke-width="2" d="M499,-469.76C499,-462.27 499,-455.33 499,-455.33 499,-455.33 1750,-455.33 1750,-455.33 1750,-455.33 1750,-124.31 1750,-124.31"/>
<polygon fill="#f0e442" stroke="#f0e442" stroke-width="2" points="1753.5,-124.31 1750,-114.31 1746.5,-124.31 1753.5,-124.31"/>
</g>
<!-- node_37e2d69c&#45;&gt;node_2049139c -->
<g id="edge30" class="edge">
<title>node_37e2d69c&#45;&gt;node_2049139c</title>
<path fill="none" stroke="#f0e442" stroke-width="2" d="M587,-469.92C587,-463.89 587,-458.67 587,-458.67 587,-458.67 1792,-458.67 1792,-458.67 1792,-458.67 1792,-178.38 1792,-178.38"/>
<polygon fill="#f0e442" stroke="#f0e442" stroke-width="2" points="1795.5,-178.38 1792,-168.38 1788.5,-178.38 1795.5,-178.38"/>
</g>
<!-- node_37e2d69c&#45;&gt;node_7e3d05b8 -->
<g id="edge31" class="edge">
<title>node_37e2d69c&#45;&gt;node_7e3d05b8</title>
<path fill="none" stroke="#f0e442" stroke-width="2" d="M675.11,-479.5C713.85,-479.5 746,-479.5 746,-479.5 746,-479.5 746,-193.2 746,-193.2 746,-193.2 1071.72,-193.2 1071.72,-193.2"/>
<polygon fill="#f0e442" stroke="#f0e442" stroke-width="2" points="1071.72,-196.7 1081.72,-193.2 1071.72,-189.7 1071.72,-196.7"/>
</g>
<!-- node_37e2d69c&#45;&gt;node_ed8217fe -->
<g id="edge33" class="edge">
<title>node_37e2d69c&#45;&gt;node_ed8217fe</title>
<path fill="none" stroke="#f0e442" stroke-width="2" d="M675.06,-499.2C687.17,-499.2 695,-499.2 695,-499.2 695,-499.2 695,-920 695,-920 695,-920 1357.93,-920 1357.93,-920"/>
<polygon fill="#f0e442" stroke="#f0e442" stroke-width="2" points="1357.93,-923.5 1367.93,-920 1357.93,-916.5 1357.93,-923.5"/>
</g>
<!-- node_37e2d69c&#45;&gt;node_780a0dab -->
<g id="edge34" class="edge">
<title>node_37e2d69c&#45;&gt;node_780a0dab</title>
<path fill="none" stroke="#f0e442" stroke-width="2" d="M675.28,-492.4C693.99,-492.4 707,-492.4 707,-492.4 707,-492.4 707,-812 707,-812 707,-812 1400.27,-812 1400.27,-812"/>
<polygon fill="#f0e442" stroke="#f0e442" stroke-width="2" points="1400.27,-815.5 1410.27,-812 1400.27,-808.5 1400.27,-815.5"/>
</g>
<!-- node_37e2d69c&#45;&gt;node_3b0d9913 -->
<g id="edge37" class="edge">
<title>node_37e2d69c&#45;&gt;node_3b0d9913</title>
<path fill="none" stroke="#f0e442" stroke-width="2" d="M675.22,-502.6C683.74,-502.6 689,-502.6 689,-502.6 689,-502.6 689,-1039.2 689,-1039.2 689,-1039.2 1379.2,-1039.2 1379.2,-1039.2"/>
<polygon fill="#f0e442" stroke="#f0e442" stroke-width="2" points="1379.2,-1042.7 1389.2,-1039.2 1379.2,-1035.7 1379.2,-1042.7"/>
</g>
<!-- node_f8cc08c9 -->
<g id="node44" class="node">
<title>node_f8cc08c9</title>
<path fill="#cccccc" stroke="black" d="M1551,-890C1551,-890 1408,-890 1408,-890 1402,-890 1396,-884 1396,-878 1396,-878 1396,-866 1396,-866 1396,-860 1402,-854 1408,-854 1408,-854 1551,-854 1551,-854 1557,-854 1563,-860 1563,-866 1563,-866 1563,-878 1563,-878 1563,-884 1557,-890 1551,-890"/>
<text text-anchor="middle" x="1479.5" y="-868.3" font-family="Times,serif" font-size="14.00">265: is_overlapping()</text>
</g>
<!-- node_37e2d69c&#45;&gt;node_f8cc08c9 -->
<g id="edge38" class="edge">
<title>node_37e2d69c&#45;&gt;node_f8cc08c9</title>
<path fill="none" stroke="#f0e442" stroke-width="2" d="M675.18,-495.8C690.62,-495.8 701,-495.8 701,-495.8 701,-495.8 701,-872 701,-872 701,-872 1385.82,-872 1385.82,-872"/>
<polygon fill="#f0e442" stroke="#f0e442" stroke-width="2" points="1385.82,-875.5 1395.82,-872 1385.82,-868.5 1385.82,-875.5"/>
</g>
<!-- node_ec630c24&#45;&gt;node_10be09bc -->
<g id="edge40" class="edge">
<title>node_ec630c24&#45;&gt;node_10be09bc</title>
<path fill="none" stroke="#f0e442" stroke-width="2" d="M1627.1,-420C1689.49,-420 1748,-420 1748,-420 1748,-420 1748,-124.35 1748,-124.35"/>
<polygon fill="#f0e442" stroke="#f0e442" stroke-width="2" points="1751.5,-124.35 1748,-114.35 1744.5,-124.35 1751.5,-124.35"/>
</g>
<!-- node_ec630c24&#45;&gt;node_2049139c -->
<g id="edge41" class="edge">
<title>node_ec630c24&#45;&gt;node_2049139c</title>
<path fill="none" stroke="#f0e442" stroke-width="2" d="M1609,-407.85C1609,-348.21 1609,-162 1609,-162 1609,-162 1741.84,-162 1741.84,-162"/>
<polygon fill="#f0e442" stroke="#f0e442" stroke-width="2" points="1741.84,-165.5 1751.84,-162 1741.84,-158.5 1741.84,-165.5"/>
</g>
<!-- node_013e10cf -->
<g id="node52" class="node">
<title>node_013e10cf</title>
<path fill="#6db33f" stroke="black" d="M2150.5,-1405C2150.5,-1405 1986.5,-1405 1986.5,-1405 1980.5,-1405 1974.5,-1399 1974.5,-1393 1974.5,-1393 1974.5,-1381 1974.5,-1381 1974.5,-1375 1980.5,-1369 1986.5,-1369 1986.5,-1369 2150.5,-1369 2150.5,-1369 2156.5,-1369 2162.5,-1375 2162.5,-1381 2162.5,-1381 2162.5,-1393 2162.5,-1393 2162.5,-1399 2156.5,-1405 2150.5,-1405"/>
<text text-anchor="middle" x="2068.5" y="-1383.3" font-family="Times,serif" font-size="14.00">50: contains_all_words()</text>
</g>
<!-- node_ec630c24&#45;&gt;node_013e10cf -->
<g id="edge42" class="edge">
<title>node_ec630c24&#45;&gt;node_013e10cf</title>
<path fill="none" stroke="#f0e442" stroke-width="2" d="M1627.22,-432C1638.73,-432 1646,-432 1646,-432 1646,-432 1646,-1376.33 1646,-1376.33 1646,-1376.33 1964.47,-1376.33 1964.47,-1376.33"/>
<polygon fill="#f0e442" stroke="#f0e442" stroke-width="2" points="1964.47,-1379.83 1974.47,-1376.33 1964.47,-1372.83 1964.47,-1379.83"/>
</g>
<!-- node_894bfe64 -->
<g id="node27" class="node">
<title>node_894bfe64</title>
<path fill="#6db33f" stroke="black" d="M1200,-114C1200,-114 1119,-114 1119,-114 1113,-114 1107,-108 1107,-102 1107,-102 1107,-90 1107,-90 1107,-84 1113,-78 1119,-78 1119,-78 1200,-78 1200,-78 1206,-78 1212,-84 1212,-90 1212,-90 1212,-102 1212,-102 1212,-108 1206,-114 1200,-114"/>
<text text-anchor="middle" x="1159.5" y="-92.3" font-family="Times,serif" font-size="14.00">18: __init__()</text>
</g>
<!-- node_b626b87b -->
<g id="node29" class="node">
<title>node_b626b87b</title>
<path fill="#cccccc" stroke="black" d="M1587.5,-168C1587.5,-168 1371.5,-168 1371.5,-168 1365.5,-168 1359.5,-162 1359.5,-156 1359.5,-156 1359.5,-144 1359.5,-144 1359.5,-138 1365.5,-132 1371.5,-132 1371.5,-132 1587.5,-132 1587.5,-132 1593.5,-132 1599.5,-138 1599.5,-144 1599.5,-144 1599.5,-156 1599.5,-156 1599.5,-162 1593.5,-168 1587.5,-168"/>
<text text-anchor="middle" x="1479.5" y="-146.3" font-family="Times,serif" font-size="14.00">123: expand_entity_svm_peak()</text>
</g>
<!-- node_7e3d05b8&#45;&gt;node_b626b87b -->
<g id="edge43" class="edge">
<title>node_7e3d05b8&#45;&gt;node_b626b87b</title>
<path fill="none" stroke="#000000" stroke-width="2" d="M1231,-185.72C1231,-170.05 1231,-150 1231,-150 1231,-150 1349.25,-150 1349.25,-150"/>
<polygon fill="#000000" stroke="#000000" stroke-width="2" points="1349.25,-153.5 1359.25,-150 1349.25,-146.5 1349.25,-153.5"/>
</g>
<!-- node_1e16a261 -->
<g id="node30" class="node">
<title>node_1e16a261</title>
<path fill="#6db33f" stroke="black" d="M1582.5,-222C1582.5,-222 1376.5,-222 1376.5,-222 1370.5,-222 1364.5,-216 1364.5,-210 1364.5,-210 1364.5,-198 1364.5,-198 1364.5,-192 1370.5,-186 1376.5,-186 1376.5,-186 1582.5,-186 1582.5,-186 1588.5,-186 1594.5,-192 1594.5,-198 1594.5,-198 1594.5,-210 1594.5,-210 1594.5,-216 1588.5,-222 1582.5,-222"/>
<text text-anchor="middle" x="1479.5" y="-200.3" font-family="Times,serif" font-size="14.00">52: expand_entity_word2vec()</text>
</g>
<!-- node_7e3d05b8&#45;&gt;node_1e16a261 -->
<g id="edge44" class="edge">
<title>node_7e3d05b8&#45;&gt;node_1e16a261</title>
<path fill="none" stroke="#000000" stroke-width="2" d="M1237.37,-204C1237.37,-204 1354.26,-204 1354.26,-204"/>
<polygon fill="#000000" stroke="#000000" stroke-width="2" points="1354.26,-207.5 1364.26,-204 1354.26,-200.5 1354.26,-207.5"/>
</g>
<!-- node_1b16dbc7 -->
<g id="node31" class="node">
<title>node_1b16dbc7</title>
<path fill="#cccccc" stroke="black" d="M1622,-60C1622,-60 1337,-60 1337,-60 1331,-60 1325,-54 1325,-48 1325,-48 1325,-36 1325,-36 1325,-30 1331,-24 1337,-24 1337,-24 1622,-24 1622,-24 1628,-24 1634,-30 1634,-36 1634,-36 1634,-48 1634,-48 1634,-54 1628,-60 1622,-60"/>
<text text-anchor="middle" x="1479.5" y="-38.3" font-family="Times,serif" font-size="14.00">71: expand_entity_word2vec_with_peak()</text>
</g>
<!-- node_7e3d05b8&#45;&gt;node_1b16dbc7 -->
<g id="edge46" class="edge">
<title>node_7e3d05b8&#45;&gt;node_1b16dbc7</title>
<path fill="none" stroke="#000000" stroke-width="2" d="M1219,-185.73C1219,-143.36 1219,-42 1219,-42 1219,-42 1314.96,-42 1314.96,-42"/>
<polygon fill="#000000" stroke="#000000" stroke-width="2" points="1314.96,-45.5 1324.96,-42 1314.96,-38.5 1314.96,-45.5"/>
</g>
<!-- node_24c262e6 -->
<g id="node32" class="node">
<title>node_24c262e6</title>
<path fill="#cccccc" stroke="black" d="M1620,-114C1620,-114 1339,-114 1339,-114 1333,-114 1327,-108 1327,-102 1327,-102 1327,-90 1327,-90 1327,-84 1333,-78 1339,-78 1339,-78 1620,-78 1620,-78 1626,-78 1632,-84 1632,-90 1632,-90 1632,-102 1632,-102 1632,-108 1626,-114 1620,-114"/>
<text text-anchor="middle" x="1479.5" y="-92.3" font-family="Times,serif" font-size="14.00">94: expand_entity_word2vec_with_svm()</text>
</g>
<!-- node_7e3d05b8&#45;&gt;node_24c262e6 -->
<g id="edge47" class="edge">
<title>node_7e3d05b8&#45;&gt;node_24c262e6</title>
<path fill="none" stroke="#000000" stroke-width="2" d="M1225,-185.68C1225,-154.87 1225,-96 1225,-96 1225,-96 1316.68,-96 1316.68,-96"/>
<polygon fill="#000000" stroke="#000000" stroke-width="2" points="1316.68,-99.5 1326.68,-96 1316.68,-92.5 1316.68,-99.5"/>
</g>
<!-- node_b626b87b&#45;&gt;node_10be09bc -->
<g id="edge48" class="edge">
<title>node_b626b87b&#45;&gt;node_10be09bc</title>
<path fill="none" stroke="#009e73" stroke-width="2" d="M1599.89,-144C1670.51,-144 1746,-144 1746,-144 1746,-144 1746,-124.15 1746,-124.15"/>
<polygon fill="#009e73" stroke="#009e73" stroke-width="2" points="1749.5,-124.15 1746,-114.15 1742.5,-124.15 1749.5,-124.15"/>
</g>
<!-- node_b626b87b&#45;&gt;node_2049139c -->
<g id="edge49" class="edge">
<title>node_b626b87b&#45;&gt;node_2049139c</title>
<path fill="none" stroke="#009e73" stroke-width="2" d="M1599.87,-150C1599.87,-150 1741.88,-150 1741.88,-150"/>
<polygon fill="#009e73" stroke="#009e73" stroke-width="2" points="1741.88,-153.5 1751.88,-150 1741.88,-146.5 1741.88,-153.5"/>
</g>
<!-- node_b626b87b&#45;&gt;node_a082863c -->
<g id="edge50" class="edge">
<title>node_b626b87b&#45;&gt;node_a082863c</title>
<path fill="none" stroke="#009e73" stroke-width="2" d="M1599.6,-156C1661.43,-156 1724,-156 1724,-156 1724,-156 1724,-735.8 1724,-735.8"/>
<polygon fill="#009e73" stroke="#009e73" stroke-width="2" points="1720.5,-735.8 1724,-745.8 1727.5,-735.8 1720.5,-735.8"/>
</g>
<!-- node_1b16dbc7&#45;&gt;node_780a0dab -->
<g id="edge51" class="edge">
<title>node_1b16dbc7&#45;&gt;node_780a0dab</title>
<path fill="none" stroke="#cc79a7" stroke-width="2" d="M1634.3,-42C1648.68,-42 1658,-42 1658,-42 1658,-42 1658,-809 1658,-809 1658,-809 1558.51,-809 1558.51,-809"/>
<polygon fill="#cc79a7" stroke="#cc79a7" stroke-width="2" points="1558.51,-805.5 1548.51,-809 1558.51,-812.5 1558.51,-805.5"/>
</g>
<!-- node_24c262e6&#45;&gt;node_10be09bc -->
<g id="edge52" class="edge">
<title>node_24c262e6&#45;&gt;node_10be09bc</title>
<path fill="none" stroke="#d55e00" stroke-width="2" d="M1632.09,-90C1632.09,-90 1733.89,-90 1733.89,-90"/>
<polygon fill="#d55e00" stroke="#d55e00" stroke-width="2" points="1733.89,-93.5 1743.89,-90 1733.89,-86.5 1733.89,-93.5"/>
</g>
<!-- node_24c262e6&#45;&gt;node_2049139c -->
<g id="edge53" class="edge">
<title>node_24c262e6&#45;&gt;node_2049139c</title>
<path fill="none" stroke="#d55e00" stroke-width="2" d="M1618,-114.06C1618,-125.44 1618,-138 1618,-138 1618,-138 1741.64,-138 1741.64,-138"/>
<polygon fill="#d55e00" stroke="#d55e00" stroke-width="2" points="1741.64,-141.5 1751.64,-138 1741.64,-134.5 1741.64,-141.5"/>
</g>
<!-- node_24c262e6&#45;&gt;node_a082863c -->
<g id="edge54" class="edge">
<title>node_24c262e6&#45;&gt;node_a082863c</title>
<path fill="none" stroke="#d55e00" stroke-width="2" d="M1632.32,-102C1686.37,-102 1734,-102 1734,-102 1734,-102 1734,-735.95 1734,-735.95"/>
<polygon fill="#d55e00" stroke="#d55e00" stroke-width="2" points="1730.5,-735.95 1734,-745.95 1737.5,-735.95 1730.5,-735.95"/>
</g>
<!-- node_6d5ae0f9 -->
<g id="node33" class="node">
<title>node_6d5ae0f9</title>
<path fill="#966f33" stroke="black" d="M204,-1186C204,-1186 123,-1186 123,-1186 117,-1186 111,-1180 111,-1174 111,-1174 111,-1162 111,-1162 111,-1156 117,-1150 123,-1150 123,-1150 204,-1150 204,-1150 210,-1150 216,-1156 216,-1162 216,-1162 216,-1174 216,-1174 216,-1180 210,-1186 204,-1186"/>
<text text-anchor="middle" x="163.5" y="-1164.3" font-family="Times,serif" font-size="14.00">26: __init__()</text>
</g>
<!-- node_6d5ae0f9&#45;&gt;node_2da2c5d0 -->
<g id="edge55" class="edge">
<title>node_6d5ae0f9&#45;&gt;node_2da2c5d0</title>
<path fill="none" stroke="#e69f00" stroke-width="2" d="M216.26,-1177C237.47,-1177 257,-1177 257,-1177 257,-1177 257,-1506 257,-1506 257,-1506 479.8,-1506 479.8,-1506"/>
<polygon fill="#e69f00" stroke="#e69f00" stroke-width="2" points="479.8,-1509.5 489.8,-1506 479.8,-1502.5 479.8,-1509.5"/>
</g>
<!-- node_6d5ae0f9&#45;&gt;node_0fcdf4a2 -->
<g id="edge56" class="edge">
<title>node_6d5ae0f9&#45;&gt;node_0fcdf4a2</title>
<path fill="none" stroke="#e69f00" stroke-width="2" d="M216.14,-1168C251.62,-1168 292,-1168 292,-1168 292,-1168 292,-1344 292,-1344 292,-1344 461.39,-1344 461.39,-1344"/>
<polygon fill="#e69f00" stroke="#e69f00" stroke-width="2" points="461.39,-1347.5 471.39,-1344 461.39,-1340.5 461.39,-1347.5"/>
</g>
<!-- node_6d5ae0f9&#45;&gt;node_8dbf4ad8 -->
<g id="edge57" class="edge">
<title>node_6d5ae0f9&#45;&gt;node_8dbf4ad8</title>
<path fill="none" stroke="#e69f00" stroke-width="2" d="M216.49,-1151.8C270.06,-1151.8 345,-1151.8 345,-1151.8 345,-1151.8 345,-596 345,-596 345,-596 479.83,-596 479.83,-596"/>
<polygon fill="#e69f00" stroke="#e69f00" stroke-width="2" points="479.83,-599.5 489.83,-596 479.83,-592.5 479.83,-599.5"/>
</g>
<!-- node_6d5ae0f9&#45;&gt;node_894bfe64 -->
<g id="edge58" class="edge">
<title>node_6d5ae0f9&#45;&gt;node_894bfe64</title>
<path fill="none" stroke="#e69f00" stroke-width="2" d="M216.15,-1153.6C357.38,-1153.6 734,-1153.6 734,-1153.6 734,-1153.6 734,-96 734,-96 734,-96 1096.9,-96 1096.9,-96"/>
<polygon fill="#e69f00" stroke="#e69f00" stroke-width="2" points="1096.9,-99.5 1106.9,-96 1096.9,-92.5 1096.9,-99.5"/>
</g>
<!-- node_c3462103 -->
<g id="node34" class="node">
<title>node_c3462103</title>
<path fill="#966f33" stroke="black" d="M209,-1240C209,-1240 118,-1240 118,-1240 112,-1240 106,-1234 106,-1228 106,-1228 106,-1216 106,-1216 106,-1210 112,-1204 118,-1204 118,-1204 209,-1204 209,-1204 215,-1204 221,-1210 221,-1216 221,-1216 221,-1228 221,-1228 221,-1234 215,-1240 209,-1240"/>
<text text-anchor="middle" x="163.5" y="-1218.3" font-family="Times,serif" font-size="14.00">92: evaluate()</text>
</g>
<!-- node_c3462103&#45;&gt;node_e308c7bf -->
<g id="edge59" class="edge">
<title>node_c3462103&#45;&gt;node_e308c7bf</title>
<path fill="none" stroke="#009e73" stroke-width="2" d="M221.27,-1211.2C281.43,-1211.2 367,-1211.2 367,-1211.2 367,-1211.2 367,-650 367,-650 367,-650 479.37,-650 479.37,-650"/>
<polygon fill="#009e73" stroke="#009e73" stroke-width="2" points="479.37,-653.5 489.37,-650 479.37,-646.5 479.37,-653.5"/>
</g>
<!-- node_c3462103&#45;&gt;node_7e3d05b8 -->
<g id="edge60" class="edge">
<title>node_c3462103&#45;&gt;node_7e3d05b8</title>
<path fill="none" stroke="#009e73" stroke-width="2" d="M221.04,-1225.6C370.24,-1225.6 758,-1225.6 758,-1225.6 758,-1225.6 758,-200.4 758,-200.4 758,-200.4 1071.61,-200.4 1071.61,-200.4"/>
<polygon fill="#009e73" stroke="#009e73" stroke-width="2" points="1071.61,-203.9 1081.61,-200.4 1071.61,-196.9 1071.61,-203.9"/>
</g>
<!-- node_fc652e30 -->
<g id="node36" class="node">
<title>node_fc652e30</title>
<path fill="#cccccc" stroke="black" d="M603.5,-1195C603.5,-1195 481.5,-1195 481.5,-1195 475.5,-1195 469.5,-1189 469.5,-1183 469.5,-1183 469.5,-1171 469.5,-1171 469.5,-1165 475.5,-1159 481.5,-1159 481.5,-1159 603.5,-1159 603.5,-1159 609.5,-1159 615.5,-1165 615.5,-1171 615.5,-1171 615.5,-1183 615.5,-1183 615.5,-1189 609.5,-1195 603.5,-1195"/>
<text text-anchor="middle" x="542.5" y="-1173.3" font-family="Times,serif" font-size="14.00">151: search_eval()</text>
</g>
<!-- node_c3462103&#45;&gt;node_fc652e30 -->
<g id="edge61" class="edge">
<title>node_c3462103&#45;&gt;node_fc652e30</title>
<path fill="none" stroke="#009e73" stroke-width="2" d="M164,-1203.68C164,-1196.75 164,-1190.5 164,-1190.5 164,-1190.5 459.07,-1190.5 459.07,-1190.5"/>
<polygon fill="#009e73" stroke="#009e73" stroke-width="2" points="459.07,-1194 469.07,-1190.5 459.07,-1187 459.07,-1194"/>
</g>
<!-- node_c3462103&#45;&gt;node_3b0d9913 -->
<g id="edge63" class="edge">
<title>node_c3462103&#45;&gt;node_3b0d9913</title>
<path fill="none" stroke="#009e73" stroke-width="2" d="M221.02,-1218.4C282.12,-1218.4 370,-1218.4 370,-1218.4 370,-1218.4 370,-1045.6 370,-1045.6 370,-1045.6 1379.18,-1045.6 1379.18,-1045.6"/>
<polygon fill="#009e73" stroke="#009e73" stroke-width="2" points="1379.18,-1049.1 1389.18,-1045.6 1379.18,-1042.1 1379.18,-1049.1"/>
</g>
<!-- node_c3462103&#45;&gt;node_013e10cf -->
<g id="edge64" class="edge">
<title>node_c3462103&#45;&gt;node_013e10cf</title>
<path fill="none" stroke="#009e73" stroke-width="2" d="M221.02,-1232.8C530.64,-1232.8 1985,-1232.8 1985,-1232.8 1985,-1232.8 1985,-1358.71 1985,-1358.71"/>
<polygon fill="#009e73" stroke="#009e73" stroke-width="2" points="1981.5,-1358.71 1985,-1368.71 1988.5,-1358.71 1981.5,-1358.71"/>
</g>
<!-- node_d3ac4909 -->
<g id="node35" class="node">
<title>node_d3ac4909</title>
<path fill="#cccccc" stroke="black" d="M920.5,-1186C920.5,-1186 843.5,-1186 843.5,-1186 837.5,-1186 831.5,-1180 831.5,-1174 831.5,-1174 831.5,-1162 831.5,-1162 831.5,-1156 837.5,-1150 843.5,-1150 843.5,-1150 920.5,-1150 920.5,-1150 926.5,-1150 932.5,-1156 932.5,-1162 932.5,-1162 932.5,-1174 932.5,-1174 932.5,-1180 926.5,-1186 920.5,-1186"/>
<text text-anchor="middle" x="882" y="-1164.3" font-family="Times,serif" font-size="14.00">57: search()</text>
</g>
<!-- node_d3ac4909&#45;&gt;node_e308c7bf -->
<g id="edge65" class="edge">
<title>node_d3ac4909&#45;&gt;node_e308c7bf</title>
<path fill="none" stroke="#e69f00" stroke-width="2" d="M831.25,-1157.2C736.68,-1157.2 543,-1157.2 543,-1157.2 543,-1157.2 543,-678.05 543,-678.05"/>
<polygon fill="#e69f00" stroke="#e69f00" stroke-width="2" points="546.5,-678.05 543,-668.05 539.5,-678.05 546.5,-678.05"/>
</g>
<!-- node_d3ac4909&#45;&gt;node_7e3d05b8 -->
<g id="edge66" class="edge">
<title>node_d3ac4909&#45;&gt;node_7e3d05b8</title>
<path fill="none" stroke="#e69f00" stroke-width="2" d="M932.72,-1157.5C956.63,-1157.5 980,-1157.5 980,-1157.5 980,-1157.5 980,-207.6 980,-207.6 980,-207.6 1071.81,-207.6 1071.81,-207.6"/>
<polygon fill="#e69f00" stroke="#e69f00" stroke-width="2" points="1071.81,-211.1 1081.81,-207.6 1071.81,-204.1 1071.81,-211.1"/>
</g>
<!-- node_d3ac4909&#45;&gt;node_d3ac4909 -->
<g id="edge67" class="edge">
<title>node_d3ac4909&#45;&gt;node_d3ac4909</title>
<path fill="none" stroke="#e69f00" stroke-width="2" d="M831.37,-1155.4C824.64,-1155.4 820,-1155.4 820,-1155.4 820,-1155.4 820,-1138.25 820,-1138.25 820,-1138.25 950,-1138.25 950,-1138.25 950,-1138.25 950,-1155 950,-1155 950,-1155 942.84,-1155 942.84,-1155"/>
<polygon fill="#e69f00" stroke="#e69f00" stroke-width="2" points="942.84,-1151.5 932.84,-1155 942.84,-1158.5 942.84,-1151.5"/>
</g>
<!-- node_d3ac4909&#45;&gt;node_3b0d9913 -->
<g id="edge68" class="edge">
<title>node_d3ac4909&#45;&gt;node_3b0d9913</title>
<path fill="none" stroke="#e69f00" stroke-width="2" d="M882,-1149.9C882,-1116.55 882,-1048.8 882,-1048.8 882,-1048.8 1379.4,-1048.8 1379.4,-1048.8"/>
<polygon fill="#e69f00" stroke="#e69f00" stroke-width="2" points="1379.4,-1052.3 1389.4,-1048.8 1379.4,-1045.3 1379.4,-1052.3"/>
</g>
<!-- node_fc652e30&#45;&gt;node_d3ac4909 -->
<g id="edge69" class="edge">
<title>node_fc652e30&#45;&gt;node_d3ac4909</title>
<path fill="none" stroke="#000000" stroke-width="2" d="M615.75,-1172.5C615.75,-1172.5 821.44,-1172.5 821.44,-1172.5"/>
<polygon fill="#000000" stroke="#000000" stroke-width="2" points="821.44,-1176 831.44,-1172.5 821.44,-1169 821.44,-1176"/>
</g>
<!-- node_2e03f70b -->
<g id="node37" class="node">
<title>node_2e03f70b</title>
<path fill="#cccccc" stroke="black" d="M1527,-1160C1527,-1160 1432,-1160 1432,-1160 1426,-1160 1420,-1154 1420,-1148 1420,-1148 1420,-1136 1420,-1136 1420,-1130 1426,-1124 1432,-1124 1432,-1124 1527,-1124 1527,-1124 1533,-1124 1539,-1130 1539,-1136 1539,-1136 1539,-1148 1539,-1148 1539,-1154 1533,-1160 1527,-1160"/>
<text text-anchor="middle" x="1479.5" y="-1138.3" font-family="Times,serif" font-size="14.00">271: __new__()</text>
</g>
<!-- node_2e03f70b&#45;&gt;node_2e03f70b -->
<g id="edge70" class="edge">
<title>node_2e03f70b&#45;&gt;node_2e03f70b</title>
<path fill="none" stroke="#009e73" stroke-width="2" d="M1419.74,-1152.5C1415,-1152.5 1412,-1152.5 1412,-1152.5 1412,-1152.5 1412,-1173 1412,-1173 1412,-1173 1552,-1173 1552,-1173 1552,-1173 1552,-1142 1552,-1142 1552,-1142 1549.04,-1142 1549.04,-1142"/>
<polygon fill="#009e73" stroke="#009e73" stroke-width="2" points="1549.04,-1138.5 1539.04,-1142 1549.04,-1145.5 1549.04,-1138.5"/>
</g>
<!-- node_d64172e2 -->
<g id="node38" class="node">
<title>node_d64172e2</title>
<path fill="#6db33f" stroke="black" d="M2168,-782C2168,-782 1969,-782 1969,-782 1963,-782 1957,-776 1957,-770 1957,-770 1957,-758 1957,-758 1957,-752 1963,-746 1969,-746 1969,-746 2168,-746 2168,-746 2174,-746 2180,-752 2180,-758 2180,-758 2180,-770 2180,-770 2180,-776 2174,-782 2168,-782"/>
<text text-anchor="middle" x="2068.5" y="-760.3" font-family="Times,serif" font-size="14.00">201: calc_mutual_similarity()</text>
</g>
<!-- node_a082863c&#45;&gt;node_2f96f679 -->
<g id="edge71" class="edge">
<title>node_a082863c&#45;&gt;node_2f96f679</title>
<path fill="none" stroke="#f0e442" stroke-width="2" d="M1901.17,-764C1929.89,-764 1953,-764 1953,-764 1953,-764 1953,-1274 1953,-1274 1953,-1274 1994,-1274 1994,-1274"/>
<polygon fill="#f0e442" stroke="#f0e442" stroke-width="2" points="1994,-1277.5 2004,-1274 1994,-1270.5 1994,-1277.5"/>
</g>
<!-- node_a082863c&#45;&gt;node_d64172e2 -->
<g id="edge72" class="edge">
<title>node_a082863c&#45;&gt;node_d64172e2</title>
<path fill="none" stroke="#f0e442" stroke-width="2" d="M1901.28,-755C1901.28,-755 1946.84,-755 1946.84,-755"/>
<polygon fill="#f0e442" stroke="#f0e442" stroke-width="2" points="1946.84,-758.5 1956.84,-755 1946.84,-751.5 1946.84,-758.5"/>
</g>
<!-- node_a082863c&#45;&gt;node_013e10cf -->
<g id="edge73" class="edge">
<title>node_a082863c&#45;&gt;node_013e10cf</title>
<path fill="none" stroke="#f0e442" stroke-width="2" d="M1901.28,-773C1919.17,-773 1932,-773 1932,-773 1932,-773 1932,-1372.67 1932,-1372.67 1932,-1372.67 1964.44,-1372.67 1964.44,-1372.67"/>
<polygon fill="#f0e442" stroke="#f0e442" stroke-width="2" points="1964.44,-1376.17 1974.44,-1372.67 1964.44,-1369.17 1964.44,-1376.17"/>
</g>
<!-- node_780a0dab&#45;&gt;node_2f96f679 -->
<g id="edge75" class="edge">
<title>node_780a0dab&#45;&gt;node_2f96f679</title>
<path fill="none" stroke="#009e73" stroke-width="2" d="M1548.57,-818C1704.23,-818 2069,-818 2069,-818 2069,-818 2069,-1245.84 2069,-1245.84"/>
<polygon fill="#009e73" stroke="#009e73" stroke-width="2" points="2065.5,-1245.84 2069,-1255.84 2072.5,-1245.84 2065.5,-1245.84"/>
</g>
<!-- node_780a0dab&#45;&gt;node_013e10cf -->
<g id="edge76" class="edge">
<title>node_780a0dab&#45;&gt;node_013e10cf</title>
<path fill="none" stroke="#009e73" stroke-width="2" d="M1548.75,-827C1689.34,-827 1995,-827 1995,-827 1995,-827 1995,-1358.69 1995,-1358.69"/>
<polygon fill="#009e73" stroke="#009e73" stroke-width="2" points="1991.5,-1358.69 1995,-1368.69 1998.5,-1358.69 1991.5,-1358.69"/>
</g>
<!-- node_bdde69d9 -->
<g id="node43" class="node">
<title>node_bdde69d9</title>
<path fill="#6db33f" stroke="black" d="M1856,-890C1856,-890 1728,-890 1728,-890 1722,-890 1716,-884 1716,-878 1716,-878 1716,-866 1716,-866 1716,-860 1722,-854 1728,-854 1728,-854 1856,-854 1856,-854 1862,-854 1868,-860 1868,-866 1868,-866 1868,-878 1868,-878 1868,-884 1862,-890 1856,-890"/>
<text text-anchor="middle" x="1792" y="-868.3" font-family="Times,serif" font-size="14.00">255: is_contained()</text>
</g>
<!-- node_f8cc08c9&#45;&gt;node_bdde69d9 -->
<g id="edge77" class="edge">
<title>node_f8cc08c9&#45;&gt;node_bdde69d9</title>
<path fill="none" stroke="#e69f00" stroke-width="2" d="M1563.24,-872C1563.24,-872 1705.79,-872 1705.79,-872"/>
<polygon fill="#e69f00" stroke="#e69f00" stroke-width="2" points="1705.79,-875.5 1715.79,-872 1705.79,-868.5 1705.79,-875.5"/>
</g>
<!-- node_4f4179f2 -->
<g id="node45" class="node">
<title>node_4f4179f2</title>
<path fill="#6db33f" stroke="black" d="M1902,-998C1902,-998 1682,-998 1682,-998 1676,-998 1670,-992 1670,-986 1670,-986 1670,-974 1670,-974 1670,-968 1676,-962 1682,-962 1682,-962 1902,-962 1902,-962 1908,-962 1914,-968 1914,-974 1914,-974 1914,-986 1914,-986 1914,-992 1908,-998 1902,-998"/>
<text text-anchor="middle" x="1792" y="-976.3" font-family="Times,serif" font-size="14.00">285: preprocess_tokenize_text()</text>
</g>
<!-- node_be2145c5 -->
<g id="node46" class="node">
<title>node_be2145c5</title>
<path fill="#966f33" stroke="black" d="M1615.5,-782C1615.5,-782 1343.5,-782 1343.5,-782 1337.5,-782 1331.5,-776 1331.5,-770 1331.5,-770 1331.5,-758 1331.5,-758 1331.5,-752 1337.5,-746 1343.5,-746 1343.5,-746 1615.5,-746 1615.5,-746 1621.5,-746 1627.5,-752 1627.5,-758 1627.5,-758 1627.5,-770 1627.5,-770 1627.5,-776 1621.5,-782 1615.5,-782"/>
<text text-anchor="middle" x="1479.5" y="-760.3" font-family="Times,serif" font-size="14.00">59: read_binary_relations_to_features()</text>
</g>
<!-- node_be2145c5&#45;&gt;node_a082863c -->
<g id="edge79" class="edge">
<title>node_be2145c5&#45;&gt;node_a082863c</title>
<path fill="none" stroke="#0072b2" stroke-width="2" d="M1627.51,-764C1627.51,-764 1672.77,-764 1672.77,-764"/>
<polygon fill="#0072b2" stroke="#0072b2" stroke-width="2" points="1672.77,-767.5 1682.77,-764 1672.77,-760.5 1672.77,-767.5"/>
</g>
<!-- node_f81bbe1b -->
<g id="node48" class="node">
<title>node_f81bbe1b</title>
<path fill="#cccccc" stroke="black" d="M1529,-998C1529,-998 1430,-998 1430,-998 1424,-998 1418,-992 1418,-986 1418,-986 1418,-974 1418,-974 1418,-968 1424,-962 1430,-962 1430,-962 1529,-962 1529,-962 1535,-962 1541,-968 1541,-974 1541,-974 1541,-986 1541,-986 1541,-992 1535,-998 1529,-998"/>
<text text-anchor="middle" x="1479.5" y="-976.3" font-family="Times,serif" font-size="14.00">296: tokenize()</text>
</g>
<!-- node_f81bbe1b&#45;&gt;node_4f4179f2 -->
<g id="edge80" class="edge">
<title>node_f81bbe1b&#45;&gt;node_4f4179f2</title>
<path fill="none" stroke="#009e73" stroke-width="2" d="M1541.24,-974C1541.24,-974 1659.94,-974 1659.94,-974"/>
<polygon fill="#009e73" stroke="#009e73" stroke-width="2" points="1659.94,-977.5 1669.94,-974 1659.94,-970.5 1659.94,-977.5"/>
</g>
<!-- node_3dc46819 -->
<g id="node49" class="node">
<title>node_3dc46819</title>
<path fill="#6db33f" stroke="black" d="M2368.5,-1459C2368.5,-1459 2296.5,-1459 2296.5,-1459 2290.5,-1459 2284.5,-1453 2284.5,-1447 2284.5,-1447 2284.5,-1435 2284.5,-1435 2284.5,-1429 2290.5,-1423 2296.5,-1423 2296.5,-1423 2368.5,-1423 2368.5,-1423 2374.5,-1423 2380.5,-1429 2380.5,-1435 2380.5,-1435 2380.5,-1447 2380.5,-1447 2380.5,-1453 2374.5,-1459 2368.5,-1459"/>
<text text-anchor="middle" x="2332.5" y="-1437.3" font-family="Times,serif" font-size="14.00">9: __init__()</text>
</g>
<!-- node_4aee2f43 -->
<g id="node50" class="node">
<title>node_4aee2f43</title>
<path fill="#966f33" stroke="black" d="M2374,-1405C2374,-1405 2291,-1405 2291,-1405 2285,-1405 2279,-1399 2279,-1393 2279,-1393 2279,-1381 2279,-1381 2279,-1375 2285,-1369 2291,-1369 2291,-1369 2374,-1369 2374,-1369 2380,-1369 2386,-1375 2386,-1381 2386,-1381 2386,-1393 2386,-1393 2386,-1399 2380,-1405 2374,-1405"/>
<text text-anchor="middle" x="2332.5" y="-1383.3" font-family="Times,serif" font-size="14.00">13: __iter__()</text>
</g>
<!-- node_4aee2f43&#45;&gt;node_f81bbe1b -->
<g id="edge81" class="edge">
<title>node_4aee2f43&#45;&gt;node_f81bbe1b</title>
<path fill="none" stroke="#009e73" stroke-width="2" d="M2333,-1368.75C2333,-1354.82 2333,-1338 2333,-1338 2333,-1338 1581,-1338 1581,-1338 1581,-1338 1581,-986 1581,-986 1581,-986 1551.18,-986 1551.18,-986"/>
<polygon fill="#009e73" stroke="#009e73" stroke-width="2" points="1551.18,-982.5 1541.18,-986 1551.18,-989.5 1551.18,-982.5"/>
</g>
<!-- node_43615580&#45;&gt;node_3dc46819 -->
<g id="edge82" class="edge">
<title>node_43615580&#45;&gt;node_3dc46819</title>
<path fill="none" stroke="#000000" stroke-width="2" d="M2121.29,-1441C2121.29,-1441 2274.25,-1441 2274.25,-1441"/>
<polygon fill="#000000" stroke="#000000" stroke-width="2" points="2274.25,-1444.5 2284.25,-1441 2274.25,-1437.5 2274.25,-1444.5"/>
</g>
<!-- node_6cfb4066 -->
<g id="node53" class="node">
<title>node_6cfb4066</title>
<path fill="#6db33f" stroke="black" d="M1200,-1036C1200,-1036 1119,-1036 1119,-1036 1113,-1036 1107,-1030 1107,-1024 1107,-1024 1107,-1012 1107,-1012 1107,-1006 1113,-1000 1119,-1000 1119,-1000 1200,-1000 1200,-1000 1206,-1000 1212,-1006 1212,-1012 1212,-1012 1212,-1024 1212,-1024 1212,-1030 1206,-1036 1200,-1036"/>
<text text-anchor="middle" x="1159.5" y="-1014.3" font-family="Times,serif" font-size="14.00">11: __init__()</text>
</g>
<!-- node_e5114b6c -->
<g id="node54" class="node">
<title>node_e5114b6c</title>
<path fill="#966f33" stroke="black" d="M1201,-982C1201,-982 1118,-982 1118,-982 1112,-982 1106,-976 1106,-970 1106,-970 1106,-958 1106,-958 1106,-952 1112,-946 1118,-946 1118,-946 1201,-946 1201,-946 1207,-946 1213,-952 1213,-958 1213,-958 1213,-970 1213,-970 1213,-976 1207,-982 1201,-982"/>
<text text-anchor="middle" x="1159.5" y="-960.3" font-family="Times,serif" font-size="14.00">15: __iter__()</text>
</g>
<!-- node_e5114b6c&#45;&gt;node_f81bbe1b -->
<g id="edge83" class="edge">
<title>node_e5114b6c&#45;&gt;node_f81bbe1b</title>
<path fill="none" stroke="#f0e442" stroke-width="2" d="M1213.06,-972C1213.06,-972 1407.82,-972 1407.82,-972"/>
<polygon fill="#f0e442" stroke="#f0e442" stroke-width="2" points="1407.82,-975.5 1417.82,-972 1407.82,-968.5 1407.82,-975.5"/>
</g>
<!-- node_674eb302 -->
<g id="node55" class="node">
<title>node_674eb302</title>
<path fill="#966f33" stroke="black" d="M922.5,-1036C922.5,-1036 841.5,-1036 841.5,-1036 835.5,-1036 829.5,-1030 829.5,-1024 829.5,-1024 829.5,-1012 829.5,-1012 829.5,-1006 835.5,-1000 841.5,-1000 841.5,-1000 922.5,-1000 922.5,-1000 928.5,-1000 934.5,-1006 934.5,-1012 934.5,-1012 934.5,-1024 934.5,-1024 934.5,-1030 928.5,-1036 922.5,-1036"/>
<text text-anchor="middle" x="882" y="-1014.3" font-family="Times,serif" font-size="14.00">26: __init__()</text>
</g>
<!-- node_674eb302&#45;&gt;node_6cfb4066 -->
<g id="edge84" class="edge">
<title>node_674eb302&#45;&gt;node_6cfb4066</title>
<path fill="none" stroke="#56b4e9" stroke-width="2" d="M934.52,-1018C934.52,-1018 1096.72,-1018 1096.72,-1018"/>
<polygon fill="#56b4e9" stroke="#56b4e9" stroke-width="2" points="1096.72,-1021.5 1106.72,-1018 1096.72,-1014.5 1096.72,-1021.5"/>
</g>
</g>
</svg>
