<?xml version="1.0" encoding="UTF-8" standalone="no"?>
<!DOCTYPE svg PUBLIC "-//W3C//DTD SVG 1.1//EN"
 "http://www.w3.org/Graphics/SVG/1.1/DTD/svg11.dtd">
<!-- Generated by graphviz version 2.43.0 (0)
 -->
<!-- Title: G Pages: 1 -->
<svg width="2534pt" height="530pt"
 viewBox="0.00 0.00 2534.00 530.00" xmlns="http://www.w3.org/2000/svg" xmlns:xlink="http://www.w3.org/1999/xlink">
<g id="graph0" class="graph" transform="scale(1 1) rotate(0) translate(4 526)">
<title>G</title>
<polygon fill="white" stroke="transparent" points="-4,4 -4,-526 2530,-526 2530,4 -4,4"/>
<g id="clust2" class="cluster">
<title>cluster_868bee3a</title>
<polygon fill="none" stroke="black" stroke-dasharray="1,5" points="2117,-338 2117,-506 2518,-506 2518,-338 2117,-338"/>
<text text-anchor="middle" x="2317.5" y="-490.8" font-family="Times,serif" font-size="14.00">File: max_entities_heap</text>
</g>
<g id="clust3" class="cluster">
<title>cluster_5788e48c</title>
<polygon fill="none" stroke="black" stroke-dasharray="1,5" points="2125,-346 2125,-475 2510,-475 2510,-346 2125,-346"/>
<text text-anchor="middle" x="2317.5" y="-459.8" font-family="Times,serif" font-size="14.00">Class: MaxEntitiesHeap</text>
</g>
<g id="clust4" class="cluster">
<title>cluster_419fc2bf</title>
<polygon fill="none" stroke="black" stroke-dasharray="1,5" points="670,-292 670,-514 1764,-514 1764,-292 670,-292"/>
<text text-anchor="middle" x="1217" y="-498.8" font-family="Times,serif" font-size="14.00">File: qe_multiple_entities</text>
</g>
<g id="clust5" class="cluster">
<title>cluster_db6c47d4</title>
<polygon fill="none" stroke="black" stroke-dasharray="1,5" points="678,-300 678,-483 1756,-483 1756,-300 678,-300"/>
<text text-anchor="middle" x="1217" y="-467.8" font-family="Times,serif" font-size="14.00">Class: QEMultipleEntities</text>
</g>
<g id="clust6" class="cluster">
<title>cluster_714abdb6</title>
<polygon fill="none" stroke="black" stroke-dasharray="1,5" points="1507,-8 1507,-284 2109,-284 2109,-8 1507,-8"/>
<text text-anchor="middle" x="1808" y="-268.8" font-family="Times,serif" font-size="14.00">File: qe_single_entity</text>
</g>
<g id="clust7" class="cluster">
<title>cluster_b8a148a3</title>
<polygon fill="none" stroke="black" stroke-dasharray="1,5" points="1515,-16 1515,-253 2101,-253 2101,-16 1515,-16"/>
<text text-anchor="middle" x="1808" y="-237.8" font-family="Times,serif" font-size="14.00">Class: QESingleEntity</text>
</g>
<g id="clust8" class="cluster">
<title>cluster_5f0b8a4f</title>
<polygon fill="none" stroke="black" stroke-dasharray="1,5" points="90,-204 90,-372 662,-372 662,-204 90,-204"/>
<text text-anchor="middle" x="376" y="-356.8" font-family="Times,serif" font-size="14.00">File: temporal_search</text>
</g>
<g id="clust9" class="cluster">
<title>cluster_2a0001cb</title>
<polygon fill="none" stroke="black" stroke-dasharray="1,5" points="98,-212 98,-341 654,-341 654,-212 98,-212"/>
<text text-anchor="middle" x="376" y="-325.8" font-family="Times,serif" font-size="14.00">Class: TemporalSearch</text>
</g>
<!-- Legend -->
<g id="node1" class="node">
<title>Legend</title>
<polygon fill="none" stroke="black" points="1.5,-178 1.5,-195 326.5,-195 326.5,-178 1.5,-178"/>
<text text-anchor="start" x="98" y="-182.8" font-family="Times,serif" font-size="14.00">Code2flow Legend</text>
<polygon fill="none" stroke="black" points="1.5,-90 1.5,-178 326.5,-178 326.5,-90 1.5,-90"/>
<polygon fill="none" stroke="black" points="3.5,-155 3.5,-176 274.5,-176 274.5,-155 3.5,-155"/>
<text text-anchor="start" x="79" y="-161.8" font-family="Times,serif" font-size="14.00">Regular function</text>
<polygon fill="#cccccc" stroke="transparent" points="274.5,-155 274.5,-176 324.5,-176 324.5,-155 274.5,-155"/>
<polygon fill="none" stroke="black" points="274.5,-155 274.5,-176 324.5,-176 324.5,-155 274.5,-155"/>
<polygon fill="none" stroke="black" points="3.5,-134 3.5,-155 274.5,-155 274.5,-134 3.5,-134"/>
<text text-anchor="start" x="17" y="-140.8" font-family="Times,serif" font-size="14.00">Trunk function (nothing calls this)</text>
<polygon fill="#966f33" stroke="transparent" points="274.5,-134 274.5,-155 324.5,-155 324.5,-134 274.5,-134"/>
<polygon fill="none" stroke="black" points="274.5,-134 274.5,-155 324.5,-155 324.5,-134 274.5,-134"/>
<polygon fill="none" stroke="black" points="3.5,-113 3.5,-134 274.5,-134 274.5,-113 3.5,-113"/>
<text text-anchor="start" x="6.5" y="-119.8" font-family="Times,serif" font-size="14.00">Leaf function (this calls nothing else)</text>
<polygon fill="#6db33f" stroke="transparent" points="274.5,-113 274.5,-134 324.5,-134 324.5,-113 274.5,-113"/>
<polygon fill="none" stroke="black" points="274.5,-113 274.5,-134 324.5,-134 324.5,-113 274.5,-113"/>
<polygon fill="none" stroke="black" points="3.5,-92 3.5,-113 274.5,-113 274.5,-92 3.5,-92"/>
<text text-anchor="start" x="92.5" y="-98.8" font-family="Times,serif" font-size="14.00">Function call</text>
<polygon fill="none" stroke="black" points="274.5,-92 274.5,-113 324.5,-113 324.5,-92 274.5,-92"/>
<text text-anchor="start" x="293" y="-98.8" font-family="Times,serif" font-size="14.00">→</text>
<polygon fill="none" stroke="black" points="2.5,-91 2.5,-177 325.5,-177 325.5,-91 2.5,-91"/>
<polygon fill="none" stroke="black" points="0,-89.5 0,-196.5 327,-196.5 327,-89.5 0,-89.5"/>
</g>
<!-- node_478611b2 -->
<g id="node2" class="node">
<title>node_478611b2</title>
<path fill="#6db33f" stroke="black" d="M2217,-390C2217,-390 2145,-390 2145,-390 2139,-390 2133,-384 2133,-378 2133,-378 2133,-366 2133,-366 2133,-360 2139,-354 2145,-354 2145,-354 2217,-354 2217,-354 2223,-354 2229,-360 2229,-366 2229,-366 2229,-378 2229,-378 2229,-384 2223,-390 2217,-390"/>
<text text-anchor="middle" x="2181" y="-368.3" font-family="Times,serif" font-size="14.00">9: __init__()</text>
</g>
<!-- node_fac81ca5 -->
<g id="node3" class="node">
<title>node_fac81ca5</title>
<path fill="#cccccc" stroke="black" d="M2209,-444C2209,-444 2153,-444 2153,-444 2147,-444 2141,-438 2141,-432 2141,-432 2141,-420 2141,-420 2141,-414 2147,-408 2153,-408 2153,-408 2209,-408 2209,-408 2215,-408 2221,-414 2221,-420 2221,-420 2221,-432 2221,-432 2221,-438 2215,-444 2209,-444"/>
<text text-anchor="middle" x="2181" y="-422.3" font-family="Times,serif" font-size="14.00">14: add()</text>
</g>
<!-- node_5f76b5f2 -->
<g id="node4" class="node">
<title>node_5f76b5f2</title>
<path fill="#6db33f" stroke="black" d="M2425,-390C2425,-390 2342,-390 2342,-390 2336,-390 2330,-384 2330,-378 2330,-378 2330,-366 2330,-366 2330,-360 2336,-354 2342,-354 2342,-354 2425,-354 2425,-354 2431,-354 2437,-360 2437,-366 2437,-366 2437,-378 2437,-378 2437,-384 2431,-390 2425,-390"/>
<text text-anchor="middle" x="2383.5" y="-368.3" font-family="Times,serif" font-size="14.00">33: heapify()</text>
</g>
<!-- node_fac81ca5&#45;&gt;node_5f76b5f2 -->
<g id="edge1" class="edge">
<title>node_fac81ca5&#45;&gt;node_5f76b5f2</title>
<path fill="none" stroke="#0072b2" stroke-width="2" d="M2221.29,-420C2235.03,-420 2247,-420 2247,-420 2247,-420 2247,-372 2247,-372 2247,-372 2319.94,-372 2319.94,-372"/>
<polygon fill="#0072b2" stroke="#0072b2" stroke-width="2" points="2319.94,-375.5 2329.94,-372 2319.94,-368.5 2319.94,-375.5"/>
</g>
<!-- node_feeda9a0 -->
<g id="node5" class="node">
<title>node_feeda9a0</title>
<path fill="#6db33f" stroke="black" d="M2490,-444C2490,-444 2277,-444 2277,-444 2271,-444 2265,-438 2265,-432 2265,-432 2265,-420 2265,-420 2265,-414 2271,-408 2277,-408 2277,-408 2490,-408 2490,-408 2496,-408 2502,-414 2502,-420 2502,-420 2502,-432 2502,-432 2502,-438 2496,-444 2490,-444"/>
<text text-anchor="middle" x="2383.5" y="-422.3" font-family="Times,serif" font-size="14.00">36: is_term_exists_in_entities()</text>
</g>
<!-- node_fac81ca5&#45;&gt;node_feeda9a0 -->
<g id="edge2" class="edge">
<title>node_fac81ca5&#45;&gt;node_feeda9a0</title>
<path fill="none" stroke="#0072b2" stroke-width="2" d="M2221.01,-432C2221.01,-432 2254.99,-432 2254.99,-432"/>
<polygon fill="#0072b2" stroke="#0072b2" stroke-width="2" points="2254.99,-435.5 2264.99,-432 2254.99,-428.5 2254.99,-435.5"/>
</g>
<!-- node_59a04633 -->
<g id="node6" class="node">
<title>node_59a04633</title>
<path fill="#6db33f" stroke="black" d="M859,-344C859,-344 778,-344 778,-344 772,-344 766,-338 766,-332 766,-332 766,-320 766,-320 766,-314 772,-308 778,-308 778,-308 859,-308 859,-308 865,-308 871,-314 871,-320 871,-320 871,-332 871,-332 871,-338 865,-344 859,-344"/>
<text text-anchor="middle" x="818.5" y="-322.3" font-family="Times,serif" font-size="14.00">20: __init__()</text>
</g>
<!-- node_952f3b3b -->
<g id="node7" class="node">
<title>node_952f3b3b</title>
<path fill="#6db33f" stroke="black" d="M1400.5,-344C1400.5,-344 1206.5,-344 1206.5,-344 1200.5,-344 1194.5,-338 1194.5,-332 1194.5,-332 1194.5,-320 1194.5,-320 1194.5,-314 1200.5,-308 1206.5,-308 1206.5,-308 1400.5,-308 1400.5,-308 1406.5,-308 1412.5,-314 1412.5,-320 1412.5,-320 1412.5,-332 1412.5,-332 1412.5,-338 1406.5,-344 1400.5,-344"/>
<text text-anchor="middle" x="1303.5" y="-322.3" font-family="Times,serif" font-size="14.00">57: calc_best_year_method()</text>
</g>
<!-- node_484a26ab -->
<g id="node8" class="node">
<title>node_484a26ab</title>
<path fill="#cccccc" stroke="black" d="M859.5,-452C859.5,-452 777.5,-452 777.5,-452 771.5,-452 765.5,-446 765.5,-440 765.5,-440 765.5,-428 765.5,-428 765.5,-422 771.5,-416 777.5,-416 777.5,-416 859.5,-416 859.5,-416 865.5,-416 871.5,-422 871.5,-428 871.5,-428 871.5,-440 871.5,-440 871.5,-446 865.5,-452 859.5,-452"/>
<text text-anchor="middle" x="818.5" y="-430.3" font-family="Times,serif" font-size="14.00">31: expand()</text>
</g>
<!-- node_4eaa8143 -->
<g id="node10" class="node">
<title>node_4eaa8143</title>
<path fill="#cccccc" stroke="black" d="M1142,-425C1142,-425 999,-425 999,-425 993,-425 987,-419 987,-413 987,-413 987,-401 987,-401 987,-395 993,-389 999,-389 999,-389 1142,-389 1142,-389 1148,-389 1154,-395 1154,-401 1154,-401 1154,-413 1154,-413 1154,-419 1148,-425 1142,-425"/>
<text text-anchor="middle" x="1070.5" y="-403.3" font-family="Times,serif" font-size="14.00">34: expand_entities()</text>
</g>
<!-- node_484a26ab&#45;&gt;node_4eaa8143 -->
<g id="edge3" class="edge">
<title>node_484a26ab&#45;&gt;node_4eaa8143</title>
<path fill="none" stroke="#009e73" stroke-width="2" d="M871.63,-420.5C871.63,-420.5 976.69,-420.5 976.69,-420.5"/>
<polygon fill="#009e73" stroke="#009e73" stroke-width="2" points="976.69,-424 986.69,-420.5 976.69,-417 976.69,-424"/>
</g>
<!-- node_19cbfbb2 -->
<g id="node9" class="node">
<title>node_19cbfbb2</title>
<path fill="#cccccc" stroke="black" d="M1377.5,-452C1377.5,-452 1229.5,-452 1229.5,-452 1223.5,-452 1217.5,-446 1217.5,-440 1217.5,-440 1217.5,-428 1217.5,-428 1217.5,-422 1223.5,-416 1229.5,-416 1229.5,-416 1377.5,-416 1377.5,-416 1383.5,-416 1389.5,-422 1389.5,-428 1389.5,-428 1389.5,-440 1389.5,-440 1389.5,-446 1383.5,-452 1377.5,-452"/>
<text text-anchor="middle" x="1303.5" y="-430.3" font-family="Times,serif" font-size="14.00">73: expand_baseline()</text>
</g>
<!-- node_8d49c60a -->
<g id="node13" class="node">
<title>node_8d49c60a</title>
<path fill="#cccccc" stroke="black" d="M1736,-406C1736,-406 1465,-406 1465,-406 1459,-406 1453,-400 1453,-394 1453,-394 1453,-382 1453,-382 1453,-376 1459,-370 1465,-370 1465,-370 1736,-370 1736,-370 1742,-370 1748,-376 1748,-382 1748,-382 1748,-394 1748,-394 1748,-400 1742,-406 1736,-406"/>
<text text-anchor="middle" x="1600.5" y="-384.3" font-family="Times,serif" font-size="14.00">190: filter_candidates_by_mutual_sim()</text>
</g>
<!-- node_19cbfbb2&#45;&gt;node_8d49c60a -->
<g id="edge4" class="edge">
<title>node_19cbfbb2&#45;&gt;node_8d49c60a</title>
<path fill="none" stroke="#56b4e9" stroke-width="2" d="M1304,-415.76C1304,-408.57 1304,-402 1304,-402 1304,-402 1442.68,-402 1442.68,-402"/>
<polygon fill="#56b4e9" stroke="#56b4e9" stroke-width="2" points="1442.68,-405.5 1452.68,-402 1442.68,-398.5 1442.68,-405.5"/>
</g>
<!-- node_c620c283 -->
<g id="node15" class="node">
<title>node_c620c283</title>
<path fill="#cccccc" stroke="black" d="M1666,-222C1666,-222 1535,-222 1535,-222 1529,-222 1523,-216 1523,-210 1523,-210 1523,-198 1523,-198 1523,-192 1529,-186 1535,-186 1535,-186 1666,-186 1666,-186 1672,-186 1678,-192 1678,-198 1678,-198 1678,-210 1678,-210 1678,-216 1672,-222 1666,-222"/>
<text text-anchor="middle" x="1600.5" y="-200.3" font-family="Times,serif" font-size="14.00">26: expand_entity()</text>
</g>
<!-- node_19cbfbb2&#45;&gt;node_c620c283 -->
<g id="edge5" class="edge">
<title>node_19cbfbb2&#45;&gt;node_c620c283</title>
<path fill="none" stroke="#56b4e9" stroke-width="2" d="M1389.75,-430C1414.53,-430 1435,-430 1435,-430 1435,-430 1435,-214.12 1435,-214.12 1435,-214.12 1512.6,-214.12 1512.6,-214.12"/>
<polygon fill="#56b4e9" stroke="#56b4e9" stroke-width="2" points="1512.6,-217.63 1522.6,-214.12 1512.6,-210.63 1512.6,-217.63"/>
</g>
<!-- node_4eaa8143&#45;&gt;node_952f3b3b -->
<g id="edge6" class="edge">
<title>node_4eaa8143&#45;&gt;node_952f3b3b</title>
<path fill="none" stroke="#009e73" stroke-width="2" d="M1071,-388.62C1071,-364.72 1071,-326 1071,-326 1071,-326 1184.4,-326 1184.4,-326"/>
<polygon fill="#009e73" stroke="#009e73" stroke-width="2" points="1184.4,-329.5 1194.4,-326 1184.4,-322.5 1184.4,-329.5"/>
</g>
<!-- node_4eaa8143&#45;&gt;node_19cbfbb2 -->
<g id="edge7" class="edge">
<title>node_4eaa8143&#45;&gt;node_19cbfbb2</title>
<path fill="none" stroke="#009e73" stroke-width="2" d="M1154.29,-420.5C1154.29,-420.5 1207.32,-420.5 1207.32,-420.5"/>
<polygon fill="#009e73" stroke="#009e73" stroke-width="2" points="1207.32,-424 1217.32,-420.5 1207.32,-417 1207.32,-424"/>
</g>
<!-- node_b844242a -->
<g id="node11" class="node">
<title>node_b844242a</title>
<path fill="#cccccc" stroke="black" d="M1405,-398C1405,-398 1202,-398 1202,-398 1196,-398 1190,-392 1190,-386 1190,-386 1190,-374 1190,-374 1190,-368 1196,-362 1202,-362 1202,-362 1405,-362 1405,-362 1411,-362 1417,-368 1417,-374 1417,-374 1417,-386 1417,-386 1417,-392 1411,-398 1405,-398"/>
<text text-anchor="middle" x="1303.5" y="-376.3" font-family="Times,serif" font-size="14.00">98: expand_entities_generic()</text>
</g>
<!-- node_4eaa8143&#45;&gt;node_b844242a -->
<g id="edge8" class="edge">
<title>node_4eaa8143&#45;&gt;node_b844242a</title>
<path fill="none" stroke="#009e73" stroke-width="2" d="M1154.29,-393.5C1154.29,-393.5 1179.62,-393.5 1179.62,-393.5"/>
<polygon fill="#009e73" stroke="#009e73" stroke-width="2" points="1179.62,-397 1189.62,-393.5 1179.62,-390 1179.62,-397"/>
</g>
<!-- node_b844242a&#45;&gt;node_8d49c60a -->
<g id="edge12" class="edge">
<title>node_b844242a&#45;&gt;node_8d49c60a</title>
<path fill="none" stroke="#56b4e9" stroke-width="2" d="M1417.05,-384C1417.05,-384 1442.79,-384 1442.79,-384"/>
<polygon fill="#56b4e9" stroke="#56b4e9" stroke-width="2" points="1442.79,-387.5 1452.79,-384 1442.79,-380.5 1442.79,-387.5"/>
</g>
<!-- node_b844242a&#45;&gt;node_c620c283 -->
<g id="edge13" class="edge">
<title>node_b844242a&#45;&gt;node_c620c283</title>
<path fill="none" stroke="#56b4e9" stroke-width="2" d="M1417.1,-366C1510.31,-366 1627,-366 1627,-366 1627,-366 1627,-232.27 1627,-232.27"/>
<polygon fill="#56b4e9" stroke="#56b4e9" stroke-width="2" points="1630.5,-232.27 1627,-222.27 1623.5,-232.27 1630.5,-232.27"/>
</g>
<!-- node_e7f42485 -->
<g id="node12" class="node">
<title>node_e7f42485</title>
<path fill="#966f33" stroke="black" d="M939,-398C939,-398 698,-398 698,-398 692,-398 686,-392 686,-386 686,-386 686,-374 686,-374 686,-368 692,-362 698,-362 698,-362 939,-362 939,-362 945,-362 951,-368 951,-374 951,-374 951,-386 951,-386 951,-392 945,-398 939,-398"/>
<text text-anchor="middle" x="818.5" y="-376.3" font-family="Times,serif" font-size="14.00">153: expand_peak_detection_new()</text>
</g>
<!-- node_e7f42485&#45;&gt;node_478611b2 -->
<g id="edge14" class="edge">
<title>node_e7f42485&#45;&gt;node_478611b2</title>
<path fill="none" stroke="#0072b2" stroke-width="2" d="M898,-361.83C898,-359.55 898,-358 898,-358 898,-358 2122.66,-358 2122.66,-358"/>
<polygon fill="#0072b2" stroke="#0072b2" stroke-width="2" points="2122.66,-361.5 2132.66,-358 2122.66,-354.5 2122.66,-361.5"/>
</g>
<!-- node_e7f42485&#45;&gt;node_fac81ca5 -->
<g id="edge15" class="edge">
<title>node_e7f42485&#45;&gt;node_fac81ca5</title>
<path fill="none" stroke="#0072b2" stroke-width="2" d="M951.14,-375.5C1051.44,-375.5 1172,-375.5 1172,-375.5 1172,-375.5 1172,-414 1172,-414 1172,-414 2130.82,-414 2130.82,-414"/>
<polygon fill="#0072b2" stroke="#0072b2" stroke-width="2" points="2130.82,-417.5 2140.82,-414 2130.82,-410.5 2130.82,-417.5"/>
</g>
<!-- node_e7f42485&#45;&gt;node_c620c283 -->
<g id="edge16" class="edge">
<title>node_e7f42485&#45;&gt;node_c620c283</title>
<path fill="none" stroke="#0072b2" stroke-width="2" d="M925,-361.94C925,-317.85 925,-208.25 925,-208.25 925,-208.25 1512.68,-208.25 1512.68,-208.25"/>
<polygon fill="#0072b2" stroke="#0072b2" stroke-width="2" points="1512.68,-211.75 1522.68,-208.25 1512.68,-204.75 1512.68,-211.75"/>
</g>
<!-- node_8d49c60a&#45;&gt;node_478611b2 -->
<g id="edge18" class="edge">
<title>node_8d49c60a&#45;&gt;node_478611b2</title>
<path fill="none" stroke="#56b4e9" stroke-width="2" d="M1748.11,-380C1748.11,-380 2123,-380 2123,-380"/>
<polygon fill="#56b4e9" stroke="#56b4e9" stroke-width="2" points="2123,-383.5 2133,-380 2123,-376.5 2123,-383.5"/>
</g>
<!-- node_8d49c60a&#45;&gt;node_fac81ca5 -->
<g id="edge19" class="edge">
<title>node_8d49c60a&#45;&gt;node_fac81ca5</title>
<path fill="none" stroke="#56b4e9" stroke-width="2" d="M1748.11,-398C1920.09,-398 2181,-398 2181,-398 2181,-398 2181,-398.98 2181,-398.98"/>
<polygon fill="#56b4e9" stroke="#56b4e9" stroke-width="2" points="2177.5,-397.79 2181,-407.79 2184.5,-397.79 2177.5,-397.79"/>
</g>
<!-- node_5294ec3f -->
<g id="node14" class="node">
<title>node_5294ec3f</title>
<path fill="#6db33f" stroke="black" d="M1641,-168C1641,-168 1560,-168 1560,-168 1554,-168 1548,-162 1548,-156 1548,-156 1548,-144 1548,-144 1548,-138 1554,-132 1560,-132 1560,-132 1641,-132 1641,-132 1647,-132 1653,-138 1653,-144 1653,-144 1653,-156 1653,-156 1653,-162 1647,-168 1641,-168"/>
<text text-anchor="middle" x="1600.5" y="-146.3" font-family="Times,serif" font-size="14.00">18: __init__()</text>
</g>
<!-- node_fb0dc65e -->
<g id="node16" class="node">
<title>node_fb0dc65e</title>
<path fill="#cccccc" stroke="black" d="M2046.5,-60C2046.5,-60 1830.5,-60 1830.5,-60 1824.5,-60 1818.5,-54 1818.5,-48 1818.5,-48 1818.5,-36 1818.5,-36 1818.5,-30 1824.5,-24 1830.5,-24 1830.5,-24 2046.5,-24 2046.5,-24 2052.5,-24 2058.5,-30 2058.5,-36 2058.5,-36 2058.5,-48 2058.5,-48 2058.5,-54 2052.5,-60 2046.5,-60"/>
<text text-anchor="middle" x="1938.5" y="-38.3" font-family="Times,serif" font-size="14.00">123: expand_entity_svm_peak()</text>
</g>
<!-- node_c620c283&#45;&gt;node_fb0dc65e -->
<g id="edge20" class="edge">
<title>node_c620c283&#45;&gt;node_fb0dc65e</title>
<path fill="none" stroke="#009e73" stroke-width="2" d="M1660,-185.73C1660,-143.36 1660,-42 1660,-42 1660,-42 1808.37,-42 1808.37,-42"/>
<polygon fill="#009e73" stroke="#009e73" stroke-width="2" points="1808.37,-45.5 1818.37,-42 1808.37,-38.5 1808.37,-45.5"/>
</g>
<!-- node_81dc051e -->
<g id="node17" class="node">
<title>node_81dc051e</title>
<path fill="#6db33f" stroke="black" d="M2041.5,-114C2041.5,-114 1835.5,-114 1835.5,-114 1829.5,-114 1823.5,-108 1823.5,-102 1823.5,-102 1823.5,-90 1823.5,-90 1823.5,-84 1829.5,-78 1835.5,-78 1835.5,-78 2041.5,-78 2041.5,-78 2047.5,-78 2053.5,-84 2053.5,-90 2053.5,-90 2053.5,-102 2053.5,-102 2053.5,-108 2047.5,-114 2041.5,-114"/>
<text text-anchor="middle" x="1938.5" y="-92.3" font-family="Times,serif" font-size="14.00">52: expand_entity_word2vec()</text>
</g>
<!-- node_c620c283&#45;&gt;node_81dc051e -->
<g id="edge21" class="edge">
<title>node_c620c283&#45;&gt;node_81dc051e</title>
<path fill="none" stroke="#009e73" stroke-width="2" d="M1666,-185.72C1666,-156.31 1666,-101.75 1666,-101.75 1666,-101.75 1813.33,-101.75 1813.33,-101.75"/>
<polygon fill="#009e73" stroke="#009e73" stroke-width="2" points="1813.33,-105.25 1823.33,-101.75 1813.33,-98.25 1813.33,-105.25"/>
</g>
<!-- node_e04b54b6 -->
<g id="node18" class="node">
<title>node_e04b54b6</title>
<path fill="#6db33f" stroke="black" d="M2081,-168C2081,-168 1796,-168 1796,-168 1790,-168 1784,-162 1784,-156 1784,-156 1784,-144 1784,-144 1784,-138 1790,-132 1796,-132 1796,-132 2081,-132 2081,-132 2087,-132 2093,-138 2093,-144 2093,-144 2093,-156 2093,-156 2093,-162 2087,-168 2081,-168"/>
<text text-anchor="middle" x="1938.5" y="-146.3" font-family="Times,serif" font-size="14.00">71: expand_entity_word2vec_with_peak()</text>
</g>
<!-- node_c620c283&#45;&gt;node_e04b54b6 -->
<g id="edge23" class="edge">
<title>node_c620c283&#45;&gt;node_e04b54b6</title>
<path fill="none" stroke="#009e73" stroke-width="2" d="M1672,-185.72C1672,-170.05 1672,-150 1672,-150 1672,-150 1773.86,-150 1773.86,-150"/>
<polygon fill="#009e73" stroke="#009e73" stroke-width="2" points="1773.86,-153.5 1783.86,-150 1773.86,-146.5 1773.86,-153.5"/>
</g>
<!-- node_9a1236be -->
<g id="node19" class="node">
<title>node_9a1236be</title>
<path fill="#cccccc" stroke="black" d="M2079,-222C2079,-222 1798,-222 1798,-222 1792,-222 1786,-216 1786,-210 1786,-210 1786,-198 1786,-198 1786,-192 1792,-186 1798,-186 1798,-186 2079,-186 2079,-186 2085,-186 2091,-192 2091,-198 2091,-198 2091,-210 2091,-210 2091,-216 2085,-222 2079,-222"/>
<text text-anchor="middle" x="1938.5" y="-200.3" font-family="Times,serif" font-size="14.00">94: expand_entity_word2vec_with_svm()</text>
</g>
<!-- node_c620c283&#45;&gt;node_9a1236be -->
<g id="edge24" class="edge">
<title>node_c620c283&#45;&gt;node_9a1236be</title>
<path fill="none" stroke="#009e73" stroke-width="2" d="M1678.04,-204C1678.04,-204 1775.73,-204 1775.73,-204"/>
<polygon fill="#009e73" stroke="#009e73" stroke-width="2" points="1775.73,-207.5 1785.73,-204 1775.73,-200.5 1775.73,-207.5"/>
</g>
<!-- node_fb0dc65e&#45;&gt;node_478611b2 -->
<g id="edge25" class="edge">
<title>node_fb0dc65e&#45;&gt;node_478611b2</title>
<path fill="none" stroke="#d55e00" stroke-width="2" d="M2058.67,-36C2126.17,-36 2197,-36 2197,-36 2197,-36 2197,-343.94 2197,-343.94"/>
<polygon fill="#d55e00" stroke="#d55e00" stroke-width="2" points="2193.5,-343.94 2197,-353.94 2200.5,-343.94 2193.5,-343.94"/>
</g>
<!-- node_fb0dc65e&#45;&gt;node_fac81ca5 -->
<g id="edge26" class="edge">
<title>node_fb0dc65e&#45;&gt;node_fac81ca5</title>
<path fill="none" stroke="#d55e00" stroke-width="2" d="M2058.74,-48C2088.97,-48 2113,-48 2113,-48 2113,-48 2113,-410 2113,-410 2113,-410 2130.66,-410 2130.66,-410"/>
<polygon fill="#d55e00" stroke="#d55e00" stroke-width="2" points="2130.66,-413.5 2140.66,-410 2130.66,-406.5 2130.66,-413.5"/>
</g>
<!-- node_9a1236be&#45;&gt;node_478611b2 -->
<g id="edge27" class="edge">
<title>node_9a1236be&#45;&gt;node_478611b2</title>
<path fill="none" stroke="#d55e00" stroke-width="2" d="M2091.15,-204C2131.98,-204 2165,-204 2165,-204 2165,-204 2165,-343.7 2165,-343.7"/>
<polygon fill="#d55e00" stroke="#d55e00" stroke-width="2" points="2161.5,-343.7 2165,-353.7 2168.5,-343.7 2161.5,-343.7"/>
</g>
<!-- node_9a1236be&#45;&gt;node_fac81ca5 -->
<g id="edge28" class="edge">
<title>node_9a1236be&#45;&gt;node_fac81ca5</title>
<path fill="none" stroke="#d55e00" stroke-width="2" d="M1939,-222.09C1939,-272.7 1939,-412 1939,-412 1939,-412 2130.77,-412 2130.77,-412"/>
<polygon fill="#d55e00" stroke="#d55e00" stroke-width="2" points="2130.77,-415.5 2140.77,-412 2130.77,-408.5 2130.77,-415.5"/>
</g>
<!-- node_9a15f630 -->
<g id="node20" class="node">
<title>node_9a15f630</title>
<path fill="#966f33" stroke="black" d="M204,-256C204,-256 123,-256 123,-256 117,-256 111,-250 111,-244 111,-244 111,-232 111,-232 111,-226 117,-220 123,-220 123,-220 204,-220 204,-220 210,-220 216,-226 216,-232 216,-232 216,-244 216,-244 216,-250 210,-256 204,-256"/>
<text text-anchor="middle" x="163.5" y="-234.3" font-family="Times,serif" font-size="14.00">26: __init__()</text>
</g>
<!-- node_9a15f630&#45;&gt;node_59a04633 -->
<g id="edge29" class="edge">
<title>node_9a15f630&#45;&gt;node_59a04633</title>
<path fill="none" stroke="#000000" stroke-width="2" d="M216.03,-244.67C371.58,-244.67 819,-244.67 819,-244.67 819,-244.67 819,-297.95 819,-297.95"/>
<polygon fill="#000000" stroke="#000000" stroke-width="2" points="815.5,-297.95 819,-307.95 822.5,-297.95 815.5,-297.95"/>
</g>
<!-- node_9a15f630&#45;&gt;node_5294ec3f -->
<g id="edge30" class="edge">
<title>node_9a15f630&#45;&gt;node_5294ec3f</title>
<path fill="none" stroke="#000000" stroke-width="2" d="M216.12,-233.33C327.93,-233.33 579,-233.33 579,-233.33 579,-233.33 579,-150 579,-150 579,-150 1537.73,-150 1537.73,-150"/>
<polygon fill="#000000" stroke="#000000" stroke-width="2" points="1537.73,-153.5 1547.73,-150 1537.73,-146.5 1537.73,-153.5"/>
</g>
<!-- node_b0fdab13 -->
<g id="node21" class="node">
<title>node_b0fdab13</title>
<path fill="#966f33" stroke="black" d="M209,-310C209,-310 118,-310 118,-310 112,-310 106,-304 106,-298 106,-298 106,-286 106,-286 106,-280 112,-274 118,-274 118,-274 209,-274 209,-274 215,-274 221,-280 221,-286 221,-286 221,-298 221,-298 221,-304 215,-310 209,-310"/>
<text text-anchor="middle" x="163.5" y="-288.3" font-family="Times,serif" font-size="14.00">92: evaluate()</text>
</g>
<!-- node_b0fdab13&#45;&gt;node_484a26ab -->
<g id="edge31" class="edge">
<title>node_b0fdab13&#45;&gt;node_484a26ab</title>
<path fill="none" stroke="#009e73" stroke-width="2" d="M164,-310.15C164,-349.67 164,-440 164,-440 164,-440 755.49,-440 755.49,-440"/>
<polygon fill="#009e73" stroke="#009e73" stroke-width="2" points="755.49,-443.5 765.49,-440 755.49,-436.5 755.49,-443.5"/>
</g>
<!-- node_b0fdab13&#45;&gt;node_c620c283 -->
<g id="edge32" class="edge">
<title>node_b0fdab13&#45;&gt;node_c620c283</title>
<path fill="none" stroke="#009e73" stroke-width="2" d="M221.02,-304.5C485.86,-304.5 1575,-304.5 1575,-304.5 1575,-304.5 1575,-232.43 1575,-232.43"/>
<polygon fill="#009e73" stroke="#009e73" stroke-width="2" points="1578.5,-232.43 1575,-222.43 1571.5,-232.43 1578.5,-232.43"/>
</g>
<!-- node_c1baebfc -->
<g id="node23" class="node">
<title>node_c1baebfc</title>
<path fill="#cccccc" stroke="black" d="M497,-301C497,-301 375,-301 375,-301 369,-301 363,-295 363,-289 363,-289 363,-277 363,-277 363,-271 369,-265 375,-265 375,-265 497,-265 497,-265 503,-265 509,-271 509,-277 509,-277 509,-289 509,-289 509,-295 503,-301 497,-301"/>
<text text-anchor="middle" x="436" y="-279.3" font-family="Times,serif" font-size="14.00">151: search_eval()</text>
</g>
<!-- node_b0fdab13&#45;&gt;node_c1baebfc -->
<g id="edge33" class="edge">
<title>node_b0fdab13&#45;&gt;node_c1baebfc</title>
<path fill="none" stroke="#009e73" stroke-width="2" d="M221.29,-287.5C221.29,-287.5 352.96,-287.5 352.96,-287.5"/>
<polygon fill="#009e73" stroke="#009e73" stroke-width="2" points="352.96,-291 362.96,-287.5 352.96,-284 352.96,-291"/>
</g>
<!-- node_1a7055a2 -->
<g id="node22" class="node">
<title>node_1a7055a2</title>
<path fill="#cccccc" stroke="black" d="M634,-292C634,-292 557,-292 557,-292 551,-292 545,-286 545,-280 545,-280 545,-268 545,-268 545,-262 551,-256 557,-256 557,-256 634,-256 634,-256 640,-256 646,-262 646,-268 646,-268 646,-280 646,-280 646,-286 640,-292 634,-292"/>
<text text-anchor="middle" x="595.5" y="-270.3" font-family="Times,serif" font-size="14.00">57: search()</text>
</g>
<!-- node_1a7055a2&#45;&gt;node_484a26ab -->
<g id="edge35" class="edge">
<title>node_1a7055a2&#45;&gt;node_484a26ab</title>
<path fill="none" stroke="#56b4e9" stroke-width="2" d="M596,-292.27C596,-333.06 596,-428 596,-428 596,-428 755.49,-428 755.49,-428"/>
<polygon fill="#56b4e9" stroke="#56b4e9" stroke-width="2" points="755.49,-431.5 765.49,-428 755.49,-424.5 755.49,-431.5"/>
</g>
<!-- node_1a7055a2&#45;&gt;node_c620c283 -->
<g id="edge36" class="edge">
<title>node_1a7055a2&#45;&gt;node_c620c283</title>
<path fill="none" stroke="#56b4e9" stroke-width="2" d="M613,-255.93C613,-234.71 613,-202.38 613,-202.38 613,-202.38 1512.6,-202.38 1512.6,-202.38"/>
<polygon fill="#56b4e9" stroke="#56b4e9" stroke-width="2" points="1512.6,-205.88 1522.6,-202.38 1512.6,-198.88 1512.6,-205.88"/>
</g>
<!-- node_1a7055a2&#45;&gt;node_1a7055a2 -->
<g id="edge37" class="edge">
<title>node_1a7055a2&#45;&gt;node_1a7055a2</title>
<path fill="none" stroke="#56b4e9" stroke-width="2" d="M545,-283C534.73,-283 527,-283 527,-283 527,-283 527,-296.5 527,-296.5 527,-296.5 666,-296.5 666,-296.5 666,-296.5 666,-274 666,-274 666,-274 656.36,-274 656.36,-274"/>
<polygon fill="#56b4e9" stroke="#56b4e9" stroke-width="2" points="656.36,-270.5 646.36,-274 656.36,-277.5 656.36,-270.5"/>
</g>
<!-- node_c1baebfc&#45;&gt;node_1a7055a2 -->
<g id="edge38" class="edge">
<title>node_c1baebfc&#45;&gt;node_1a7055a2</title>
<path fill="none" stroke="#f0e442" stroke-width="2" d="M509.21,-274C509.21,-274 534.59,-274 534.59,-274"/>
<polygon fill="#f0e442" stroke="#f0e442" stroke-width="2" points="534.59,-277.5 544.59,-274 534.59,-270.5 534.59,-277.5"/>
</g>
</g>
</svg>
